G04 #@! TF.GenerationSoftware,KiCad,Pcbnew,6.0.9-8da3e8f707~116~ubuntu20.04.1*
G04 #@! TF.CreationDate,2023-03-26T14:19:45+00:00*
G04 #@! TF.ProjectId,LEC001020,4c454330-3031-4303-9230-2e6b69636164,rev?*
G04 #@! TF.SameCoordinates,Original*
G04 #@! TF.FileFunction,Legend,Top*
G04 #@! TF.FilePolarity,Positive*
%FSLAX46Y46*%
G04 Gerber Fmt 4.6, Leading zero omitted, Abs format (unit mm)*
G04 Created by KiCad (PCBNEW 6.0.9-8da3e8f707~116~ubuntu20.04.1) date 2023-03-26 14:19:45*
%MOMM*%
%LPD*%
G01*
G04 APERTURE LIST*
%ADD10C,0.300000*%
%ADD11C,0.150000*%
%ADD12C,0.120000*%
%ADD13C,0.010000*%
G04 APERTURE END LIST*
D10*
X18271428Y-17221428D02*
X18342857Y-17150000D01*
X18485714Y-17078571D01*
X18842857Y-17078571D01*
X18985714Y-17150000D01*
X19057142Y-17221428D01*
X19128571Y-17364285D01*
X19128571Y-17507142D01*
X19057142Y-17721428D01*
X18200000Y-18578571D01*
X19128571Y-18578571D01*
X6828571Y-18578571D02*
X5971428Y-18578571D01*
X6400000Y-18578571D02*
X6400000Y-17078571D01*
X6257142Y-17292857D01*
X6114285Y-17435714D01*
X5971428Y-17507142D01*
D11*
G04 #@! TO.C,D5*
X19261904Y-1452380D02*
X19261904Y-452380D01*
X19500000Y-452380D01*
X19642857Y-500000D01*
X19738095Y-595238D01*
X19785714Y-690476D01*
X19833333Y-880952D01*
X19833333Y-1023809D01*
X19785714Y-1214285D01*
X19738095Y-1309523D01*
X19642857Y-1404761D01*
X19500000Y-1452380D01*
X19261904Y-1452380D01*
X20738095Y-452380D02*
X20261904Y-452380D01*
X20214285Y-928571D01*
X20261904Y-880952D01*
X20357142Y-833333D01*
X20595238Y-833333D01*
X20690476Y-880952D01*
X20738095Y-928571D01*
X20785714Y-1023809D01*
X20785714Y-1261904D01*
X20738095Y-1357142D01*
X20690476Y-1404761D01*
X20595238Y-1452380D01*
X20357142Y-1452380D01*
X20261904Y-1404761D01*
X20214285Y-1357142D01*
G04 #@! TO.C,D4*
X15261904Y-1452380D02*
X15261904Y-452380D01*
X15500000Y-452380D01*
X15642857Y-500000D01*
X15738095Y-595238D01*
X15785714Y-690476D01*
X15833333Y-880952D01*
X15833333Y-1023809D01*
X15785714Y-1214285D01*
X15738095Y-1309523D01*
X15642857Y-1404761D01*
X15500000Y-1452380D01*
X15261904Y-1452380D01*
X16690476Y-785714D02*
X16690476Y-1452380D01*
X16452380Y-404761D02*
X16214285Y-1119047D01*
X16833333Y-1119047D01*
G04 #@! TO.C,D1*
X4261904Y-1452380D02*
X4261904Y-452380D01*
X4500000Y-452380D01*
X4642857Y-500000D01*
X4738095Y-595238D01*
X4785714Y-690476D01*
X4833333Y-880952D01*
X4833333Y-1023809D01*
X4785714Y-1214285D01*
X4738095Y-1309523D01*
X4642857Y-1404761D01*
X4500000Y-1452380D01*
X4261904Y-1452380D01*
X5785714Y-1452380D02*
X5214285Y-1452380D01*
X5500000Y-1452380D02*
X5500000Y-452380D01*
X5404761Y-595238D01*
X5309523Y-690476D01*
X5214285Y-738095D01*
G04 #@! TO.C,D2*
X7761904Y-1452380D02*
X7761904Y-452380D01*
X8000000Y-452380D01*
X8142857Y-500000D01*
X8238095Y-595238D01*
X8285714Y-690476D01*
X8333333Y-880952D01*
X8333333Y-1023809D01*
X8285714Y-1214285D01*
X8238095Y-1309523D01*
X8142857Y-1404761D01*
X8000000Y-1452380D01*
X7761904Y-1452380D01*
X8714285Y-547619D02*
X8761904Y-500000D01*
X8857142Y-452380D01*
X9095238Y-452380D01*
X9190476Y-500000D01*
X9238095Y-547619D01*
X9285714Y-642857D01*
X9285714Y-738095D01*
X9238095Y-880952D01*
X8666666Y-1452380D01*
X9285714Y-1452380D01*
G04 #@! TO.C,D3*
X11761904Y-1452380D02*
X11761904Y-452380D01*
X12000000Y-452380D01*
X12142857Y-500000D01*
X12238095Y-595238D01*
X12285714Y-690476D01*
X12333333Y-880952D01*
X12333333Y-1023809D01*
X12285714Y-1214285D01*
X12238095Y-1309523D01*
X12142857Y-1404761D01*
X12000000Y-1452380D01*
X11761904Y-1452380D01*
X12666666Y-452380D02*
X13285714Y-452380D01*
X12952380Y-833333D01*
X13095238Y-833333D01*
X13190476Y-880952D01*
X13238095Y-928571D01*
X13285714Y-1023809D01*
X13285714Y-1261904D01*
X13238095Y-1357142D01*
X13190476Y-1404761D01*
X13095238Y-1452380D01*
X12809523Y-1452380D01*
X12714285Y-1404761D01*
X12666666Y-1357142D01*
G04 #@! TO.C,J1*
X12126666Y-12812380D02*
X12126666Y-13526666D01*
X12079047Y-13669523D01*
X11983809Y-13764761D01*
X11840952Y-13812380D01*
X11745714Y-13812380D01*
X13126666Y-13812380D02*
X12555238Y-13812380D01*
X12840952Y-13812380D02*
X12840952Y-12812380D01*
X12745714Y-12955238D01*
X12650476Y-13050476D01*
X12555238Y-13098095D01*
D12*
G04 #@! TO.C,D5*
X21650000Y-8660000D02*
X21650000Y-3260000D01*
X18350000Y-8660000D02*
X18350000Y-3260000D01*
X18350000Y-8660000D02*
X21650000Y-8660000D01*
G04 #@! TO.C,D4*
X17840000Y-8660000D02*
X17840000Y-3260000D01*
X14540000Y-8660000D02*
X14540000Y-3260000D01*
X14540000Y-8660000D02*
X17840000Y-8660000D01*
G04 #@! TO.C,D1*
X6410000Y-8660000D02*
X6410000Y-3260000D01*
X3110000Y-8660000D02*
X3110000Y-3260000D01*
X3110000Y-8660000D02*
X6410000Y-8660000D01*
G04 #@! TO.C,D2*
X6920000Y-8660000D02*
X6920000Y-3260000D01*
X6920000Y-8660000D02*
X10220000Y-8660000D01*
X10220000Y-8660000D02*
X10220000Y-3260000D01*
G04 #@! TO.C,D3*
X10730000Y-8660000D02*
X10730000Y-3260000D01*
X10730000Y-8660000D02*
X14030000Y-8660000D01*
X14030000Y-8660000D02*
X14030000Y-3260000D01*
G04 #@! TO.C,H1*
X24724903Y-14000000D02*
G75*
G03*
X24724903Y-14000000I-3224903J0D01*
G01*
G36*
X19900000Y-14100000D02*
G01*
X20000000Y-14500000D01*
X20200000Y-14900000D01*
X20600000Y-15300000D01*
X21000000Y-15500000D01*
X21400000Y-15600000D01*
X21500000Y-15600000D01*
X21500000Y-17224903D01*
X21000000Y-17200000D01*
X20000000Y-16900000D01*
X19200000Y-16300000D01*
X18700000Y-15600000D01*
X18400000Y-14900000D01*
X18300000Y-14500000D01*
X18300000Y-14000000D01*
X19900000Y-14000000D01*
X19900000Y-14100000D01*
G37*
D13*
X19900000Y-14100000D02*
X20000000Y-14500000D01*
X20200000Y-14900000D01*
X20600000Y-15300000D01*
X21000000Y-15500000D01*
X21400000Y-15600000D01*
X21500000Y-15600000D01*
X21500000Y-17224903D01*
X21000000Y-17200000D01*
X20000000Y-16900000D01*
X19200000Y-16300000D01*
X18700000Y-15600000D01*
X18400000Y-14900000D01*
X18300000Y-14500000D01*
X18300000Y-14000000D01*
X19900000Y-14000000D01*
X19900000Y-14100000D01*
G36*
X22000000Y-10800000D02*
G01*
X23000000Y-11100000D01*
X23800000Y-11700000D01*
X24300000Y-12400000D01*
X24600000Y-13100000D01*
X24700000Y-13500000D01*
X24700000Y-14000000D01*
X23100000Y-14000000D01*
X23100000Y-13900000D01*
X23000000Y-13500000D01*
X22800000Y-13100000D01*
X22400000Y-12700000D01*
X22000000Y-12500000D01*
X21600000Y-12400000D01*
X21500000Y-12400000D01*
X21500000Y-10775097D01*
X22000000Y-10800000D01*
G37*
X22000000Y-10800000D02*
X23000000Y-11100000D01*
X23800000Y-11700000D01*
X24300000Y-12400000D01*
X24600000Y-13100000D01*
X24700000Y-13500000D01*
X24700000Y-14000000D01*
X23100000Y-14000000D01*
X23100000Y-13900000D01*
X23000000Y-13500000D01*
X22800000Y-13100000D01*
X22400000Y-12700000D01*
X22000000Y-12500000D01*
X21600000Y-12400000D01*
X21500000Y-12400000D01*
X21500000Y-10775097D01*
X22000000Y-10800000D01*
D12*
G04 #@! TO.C,H2*
X6724903Y-14000000D02*
G75*
G03*
X6724903Y-14000000I-3224903J0D01*
G01*
G36*
X1900000Y-14100000D02*
G01*
X2000000Y-14500000D01*
X2200000Y-14900000D01*
X2600000Y-15300000D01*
X3000000Y-15500000D01*
X3400000Y-15600000D01*
X3500000Y-15600000D01*
X3500000Y-17224903D01*
X3000000Y-17200000D01*
X2000000Y-16900000D01*
X1200000Y-16300000D01*
X700000Y-15600000D01*
X400000Y-14900000D01*
X300000Y-14500000D01*
X300000Y-14000000D01*
X1900000Y-14000000D01*
X1900000Y-14100000D01*
G37*
D13*
X1900000Y-14100000D02*
X2000000Y-14500000D01*
X2200000Y-14900000D01*
X2600000Y-15300000D01*
X3000000Y-15500000D01*
X3400000Y-15600000D01*
X3500000Y-15600000D01*
X3500000Y-17224903D01*
X3000000Y-17200000D01*
X2000000Y-16900000D01*
X1200000Y-16300000D01*
X700000Y-15600000D01*
X400000Y-14900000D01*
X300000Y-14500000D01*
X300000Y-14000000D01*
X1900000Y-14000000D01*
X1900000Y-14100000D01*
G36*
X4000000Y-10800000D02*
G01*
X5000000Y-11100000D01*
X5800000Y-11700000D01*
X6300000Y-12400000D01*
X6600000Y-13100000D01*
X6700000Y-13500000D01*
X6700000Y-14000000D01*
X5100000Y-14000000D01*
X5100000Y-13900000D01*
X5000000Y-13500000D01*
X4800000Y-13100000D01*
X4400000Y-12700000D01*
X4000000Y-12500000D01*
X3600000Y-12400000D01*
X3500000Y-12400000D01*
X3500000Y-10775097D01*
X4000000Y-10800000D01*
G37*
X4000000Y-10800000D02*
X5000000Y-11100000D01*
X5800000Y-11700000D01*
X6300000Y-12400000D01*
X6600000Y-13100000D01*
X6700000Y-13500000D01*
X6700000Y-14000000D01*
X5100000Y-14000000D01*
X5100000Y-13900000D01*
X5000000Y-13500000D01*
X4800000Y-13100000D01*
X4400000Y-12700000D01*
X4000000Y-12500000D01*
X3600000Y-12400000D01*
X3500000Y-12400000D01*
X3500000Y-10775097D01*
X4000000Y-10800000D01*
D12*
G04 #@! TO.C,J1*
X17540000Y-16040000D02*
X7380000Y-16040000D01*
X17540000Y-9690000D02*
X7380000Y-9690000D01*
X7380000Y-17310000D02*
X17540000Y-17310000D01*
X7380000Y-9690000D02*
X7380000Y-17310000D01*
X17540000Y-17310000D02*
X17540000Y-9690000D01*
G04 #@! TD*
M02*
