G04 #@! TF.GenerationSoftware,KiCad,Pcbnew,6.0.9-8da3e8f707~116~ubuntu20.04.1*
G04 #@! TF.CreationDate,2023-03-26T14:19:45+00:00*
G04 #@! TF.ProjectId,LEC001020,4c454330-3031-4303-9230-2e6b69636164,rev?*
G04 #@! TF.SameCoordinates,Original*
G04 #@! TF.FileFunction,Legend,Bot*
G04 #@! TF.FilePolarity,Positive*
%FSLAX46Y46*%
G04 Gerber Fmt 4.6, Leading zero omitted, Abs format (unit mm)*
G04 Created by KiCad (PCBNEW 6.0.9-8da3e8f707~116~ubuntu20.04.1) date 2023-03-26 14:19:45*
%MOMM*%
%LPD*%
G01*
G04 APERTURE LIST*
%ADD10C,0.150000*%
%ADD11C,0.120000*%
%ADD12C,0.010000*%
G04 APERTURE END LIST*
D10*
X2150000Y-1000000D02*
X21500000Y-1000000D01*
X21500000Y-1000000D02*
X21500000Y-3100000D01*
X21500000Y-3100000D02*
X2150000Y-3100000D01*
X2150000Y-3100000D02*
X2150000Y-1000000D01*
D11*
G04 #@! TO.C,H1*
X24724903Y-14000000D02*
G75*
G03*
X24724903Y-14000000I-3224903J0D01*
G01*
G36*
X19900000Y-14100000D02*
G01*
X20000000Y-14500000D01*
X20200000Y-14900000D01*
X20600000Y-15300000D01*
X21000000Y-15500000D01*
X21400000Y-15600000D01*
X21500000Y-15600000D01*
X21500000Y-17224903D01*
X21000000Y-17200000D01*
X20000000Y-16900000D01*
X19200000Y-16300000D01*
X18700000Y-15600000D01*
X18400000Y-14900000D01*
X18300000Y-14500000D01*
X18300000Y-14000000D01*
X19900000Y-14000000D01*
X19900000Y-14100000D01*
G37*
D12*
X19900000Y-14100000D02*
X20000000Y-14500000D01*
X20200000Y-14900000D01*
X20600000Y-15300000D01*
X21000000Y-15500000D01*
X21400000Y-15600000D01*
X21500000Y-15600000D01*
X21500000Y-17224903D01*
X21000000Y-17200000D01*
X20000000Y-16900000D01*
X19200000Y-16300000D01*
X18700000Y-15600000D01*
X18400000Y-14900000D01*
X18300000Y-14500000D01*
X18300000Y-14000000D01*
X19900000Y-14000000D01*
X19900000Y-14100000D01*
G36*
X22000000Y-10800000D02*
G01*
X23000000Y-11100000D01*
X23800000Y-11700000D01*
X24300000Y-12400000D01*
X24600000Y-13100000D01*
X24700000Y-13500000D01*
X24700000Y-14000000D01*
X23100000Y-14000000D01*
X23100000Y-13900000D01*
X23000000Y-13500000D01*
X22800000Y-13100000D01*
X22400000Y-12700000D01*
X22000000Y-12500000D01*
X21600000Y-12400000D01*
X21500000Y-12400000D01*
X21500000Y-10775097D01*
X22000000Y-10800000D01*
G37*
X22000000Y-10800000D02*
X23000000Y-11100000D01*
X23800000Y-11700000D01*
X24300000Y-12400000D01*
X24600000Y-13100000D01*
X24700000Y-13500000D01*
X24700000Y-14000000D01*
X23100000Y-14000000D01*
X23100000Y-13900000D01*
X23000000Y-13500000D01*
X22800000Y-13100000D01*
X22400000Y-12700000D01*
X22000000Y-12500000D01*
X21600000Y-12400000D01*
X21500000Y-12400000D01*
X21500000Y-10775097D01*
X22000000Y-10800000D01*
D11*
G04 #@! TO.C,H2*
X6724903Y-14000000D02*
G75*
G03*
X6724903Y-14000000I-3224903J0D01*
G01*
G36*
X1900000Y-14100000D02*
G01*
X2000000Y-14500000D01*
X2200000Y-14900000D01*
X2600000Y-15300000D01*
X3000000Y-15500000D01*
X3400000Y-15600000D01*
X3500000Y-15600000D01*
X3500000Y-17224903D01*
X3000000Y-17200000D01*
X2000000Y-16900000D01*
X1200000Y-16300000D01*
X700000Y-15600000D01*
X400000Y-14900000D01*
X300000Y-14500000D01*
X300000Y-14000000D01*
X1900000Y-14000000D01*
X1900000Y-14100000D01*
G37*
D12*
X1900000Y-14100000D02*
X2000000Y-14500000D01*
X2200000Y-14900000D01*
X2600000Y-15300000D01*
X3000000Y-15500000D01*
X3400000Y-15600000D01*
X3500000Y-15600000D01*
X3500000Y-17224903D01*
X3000000Y-17200000D01*
X2000000Y-16900000D01*
X1200000Y-16300000D01*
X700000Y-15600000D01*
X400000Y-14900000D01*
X300000Y-14500000D01*
X300000Y-14000000D01*
X1900000Y-14000000D01*
X1900000Y-14100000D01*
G36*
X4000000Y-10800000D02*
G01*
X5000000Y-11100000D01*
X5800000Y-11700000D01*
X6300000Y-12400000D01*
X6600000Y-13100000D01*
X6700000Y-13500000D01*
X6700000Y-14000000D01*
X5100000Y-14000000D01*
X5100000Y-13900000D01*
X5000000Y-13500000D01*
X4800000Y-13100000D01*
X4400000Y-12700000D01*
X4000000Y-12500000D01*
X3600000Y-12400000D01*
X3500000Y-12400000D01*
X3500000Y-10775097D01*
X4000000Y-10800000D01*
G37*
X4000000Y-10800000D02*
X5000000Y-11100000D01*
X5800000Y-11700000D01*
X6300000Y-12400000D01*
X6600000Y-13100000D01*
X6700000Y-13500000D01*
X6700000Y-14000000D01*
X5100000Y-14000000D01*
X5100000Y-13900000D01*
X5000000Y-13500000D01*
X4800000Y-13100000D01*
X4400000Y-12700000D01*
X4000000Y-12500000D01*
X3600000Y-12400000D01*
X3500000Y-12400000D01*
X3500000Y-10775097D01*
X4000000Y-10800000D01*
G04 #@! TO.C,REF\u002A\u002A*
G36*
X9272971Y-10517822D02*
G01*
X5752178Y-10517822D01*
X5752178Y-9650198D01*
X9272971Y-9650198D01*
X9272971Y-10517822D01*
G37*
X9272971Y-10517822D02*
X5752178Y-10517822D01*
X5752178Y-9650198D01*
X9272971Y-9650198D01*
X9272971Y-10517822D01*
G36*
X8511662Y-5260696D02*
G01*
X8551314Y-5261782D01*
X8619109Y-5261782D01*
X8619109Y-5374951D01*
X8459577Y-5374951D01*
X8444682Y-5552732D01*
X8442682Y-5577037D01*
X8438023Y-5637880D01*
X8434731Y-5687389D01*
X8433092Y-5720992D01*
X8433390Y-5734116D01*
X8437724Y-5730343D01*
X8457496Y-5710676D01*
X8491679Y-5675818D01*
X8538541Y-5627576D01*
X8596354Y-5567757D01*
X8663387Y-5498167D01*
X8737912Y-5420615D01*
X8818197Y-5336907D01*
X8902513Y-5248849D01*
X8989130Y-5158250D01*
X9076319Y-5066915D01*
X9162349Y-4976653D01*
X9245492Y-4889269D01*
X9324016Y-4806572D01*
X9396192Y-4730368D01*
X9460291Y-4662463D01*
X9514583Y-4604666D01*
X9611592Y-4501040D01*
X9612034Y-4589315D01*
X9612475Y-4677589D01*
X9011938Y-5309158D01*
X8411401Y-5940726D01*
X8399396Y-6084674D01*
X8351365Y-6660635D01*
X8342876Y-6762791D01*
X8332343Y-6890612D01*
X8322621Y-7009767D01*
X8313898Y-7117914D01*
X8306358Y-7212713D01*
X8300187Y-7291819D01*
X8295573Y-7352892D01*
X8292700Y-7393590D01*
X8291754Y-7411570D01*
X8294251Y-7419808D01*
X8305471Y-7437599D01*
X8326751Y-7464411D01*
X8337021Y-7476129D01*
X8359225Y-7501466D01*
X8404023Y-7549986D01*
X8462281Y-7611192D01*
X8535129Y-7686307D01*
X8623703Y-7776550D01*
X8729134Y-7883145D01*
X8798492Y-7953093D01*
X8895179Y-8050658D01*
X8991526Y-8147941D01*
X9084638Y-8242014D01*
X9171618Y-8329950D01*
X9249569Y-8408820D01*
X9315596Y-8475699D01*
X9366802Y-8527658D01*
X9567514Y-8731620D01*
X9531058Y-8769671D01*
X9522460Y-8778245D01*
X9497095Y-8799297D01*
X9479695Y-8807723D01*
X9466071Y-8800530D01*
X9440743Y-8778944D01*
X9410379Y-8747995D01*
X9391896Y-8728448D01*
X9357427Y-8692752D01*
X9308712Y-8642684D01*
X9247469Y-8580001D01*
X9175420Y-8506457D01*
X9094285Y-8423810D01*
X9005784Y-8333815D01*
X8911637Y-8238228D01*
X8813565Y-8138805D01*
X8271161Y-7589343D01*
X8249066Y-7874746D01*
X8244250Y-7935662D01*
X8237216Y-8017548D01*
X8230872Y-8079569D01*
X8224748Y-8124987D01*
X8218373Y-8157062D01*
X8211277Y-8179052D01*
X8202991Y-8194219D01*
X8191393Y-8215416D01*
X8181850Y-8254386D01*
X8179010Y-8310531D01*
X8179010Y-8392773D01*
X7952674Y-8392773D01*
X7952674Y-8216733D01*
X7107082Y-8216733D01*
X7058203Y-8272262D01*
X7044836Y-8286722D01*
X6972388Y-8344813D01*
X6890532Y-8380576D01*
X6801900Y-8392773D01*
X6723692Y-8386306D01*
X6635233Y-8359047D01*
X6559507Y-8310328D01*
X6544748Y-8296403D01*
X6507864Y-8251328D01*
X6475503Y-8198819D01*
X6452297Y-8147061D01*
X6442879Y-8104239D01*
X6442697Y-8098023D01*
X6441342Y-8075246D01*
X6437800Y-8059513D01*
X6430390Y-8052068D01*
X6417431Y-8054156D01*
X6397243Y-8067020D01*
X6368145Y-8091905D01*
X6328456Y-8130053D01*
X6276496Y-8182710D01*
X6210584Y-8251119D01*
X6129040Y-8336524D01*
X6085604Y-8382112D01*
X6013000Y-8458441D01*
X5944309Y-8530808D01*
X5882223Y-8596366D01*
X5829434Y-8652274D01*
X5788634Y-8695686D01*
X5762515Y-8723758D01*
X5691119Y-8801436D01*
X5602863Y-8713416D01*
X6148690Y-8141287D01*
X6183105Y-8105188D01*
X6305546Y-7976272D01*
X6410651Y-7864754D01*
X6498736Y-7770288D01*
X6570116Y-7692529D01*
X6620588Y-7636174D01*
X6827247Y-7636174D01*
X6828872Y-7649434D01*
X6829156Y-7650819D01*
X6842698Y-7682228D01*
X6869748Y-7696863D01*
X6953129Y-7728063D01*
X7027418Y-7780038D01*
X7085846Y-7848791D01*
X7125890Y-7931315D01*
X7145026Y-8024606D01*
X7151364Y-8103565D01*
X8100838Y-8103565D01*
X8107458Y-8075273D01*
X8108629Y-8068329D01*
X8112268Y-8037281D01*
X8117234Y-7987081D01*
X8123157Y-7921727D01*
X8129669Y-7845219D01*
X8136401Y-7761555D01*
X8158724Y-7476129D01*
X7857826Y-7170565D01*
X7802636Y-7114704D01*
X7735109Y-7046888D01*
X7674529Y-6986643D01*
X7623021Y-6936052D01*
X7582710Y-6897200D01*
X7555722Y-6872170D01*
X7544182Y-6863046D01*
X7536444Y-6867405D01*
X7513395Y-6887241D01*
X7478709Y-6920375D01*
X7435487Y-6963820D01*
X7386832Y-7014587D01*
X7374140Y-7028051D01*
X7317229Y-7088275D01*
X7249414Y-7159864D01*
X7175800Y-7237437D01*
X7101493Y-7315611D01*
X7031599Y-7389005D01*
X7027401Y-7393409D01*
X6962420Y-7461785D01*
X6912836Y-7514732D01*
X6876688Y-7554767D01*
X6852016Y-7584411D01*
X6836858Y-7606181D01*
X6829256Y-7622595D01*
X6827247Y-7636174D01*
X6620588Y-7636174D01*
X6625105Y-7631131D01*
X6664019Y-7585748D01*
X6687173Y-7556035D01*
X6694882Y-7541644D01*
X6694883Y-7541559D01*
X6693825Y-7523624D01*
X6690737Y-7483421D01*
X6685858Y-7423687D01*
X6679432Y-7347158D01*
X6671700Y-7256569D01*
X6662905Y-7154657D01*
X6653287Y-7044159D01*
X6643091Y-6927811D01*
X6632556Y-6808348D01*
X6621926Y-6688507D01*
X6611442Y-6571025D01*
X6601346Y-6458637D01*
X6591881Y-6354081D01*
X6583288Y-6260091D01*
X6575809Y-6179405D01*
X6569687Y-6114759D01*
X6565162Y-6068888D01*
X6562478Y-6044530D01*
X6557067Y-6003732D01*
X6686253Y-6003732D01*
X6687908Y-6034653D01*
X6691549Y-6086653D01*
X6696995Y-6157487D01*
X6704063Y-6244911D01*
X6712570Y-6346681D01*
X6722335Y-6460552D01*
X6733174Y-6584279D01*
X6744907Y-6715618D01*
X6754079Y-6816908D01*
X6765566Y-6942526D01*
X6776322Y-7058762D01*
X6786131Y-7163380D01*
X6794781Y-7254140D01*
X6802057Y-7328804D01*
X6807746Y-7385134D01*
X6811634Y-7420891D01*
X6813506Y-7433837D01*
X6819188Y-7429826D01*
X6840020Y-7410138D01*
X6873872Y-7376322D01*
X6918412Y-7330837D01*
X6971310Y-7276146D01*
X7030236Y-7214710D01*
X7092858Y-7148990D01*
X7156848Y-7081449D01*
X7219874Y-7014547D01*
X7279606Y-6950746D01*
X7333713Y-6892507D01*
X7379865Y-6842292D01*
X7415733Y-6802563D01*
X7438984Y-6775780D01*
X7445778Y-6766477D01*
X7627601Y-6766477D01*
X7903305Y-7041968D01*
X7970726Y-7109224D01*
X8034267Y-7172162D01*
X8083490Y-7220100D01*
X8120196Y-7254594D01*
X8146190Y-7277199D01*
X8163276Y-7289471D01*
X8173256Y-7292966D01*
X8177935Y-7289238D01*
X8179116Y-7279844D01*
X8179873Y-7264749D01*
X8182601Y-7225883D01*
X8187108Y-7166895D01*
X8193179Y-7090473D01*
X8200596Y-6999305D01*
X8209142Y-6896080D01*
X8218602Y-6783483D01*
X8228758Y-6664205D01*
X8237723Y-6559077D01*
X8247066Y-6448351D01*
X8255443Y-6347814D01*
X8262653Y-6259943D01*
X8268496Y-6187215D01*
X8272769Y-6132110D01*
X8275273Y-6097104D01*
X8275805Y-6084674D01*
X8275384Y-6084908D01*
X8263509Y-6096350D01*
X8237130Y-6123198D01*
X8198570Y-6163018D01*
X8150153Y-6213372D01*
X8094203Y-6271828D01*
X8033042Y-6335948D01*
X7968995Y-6403298D01*
X7904385Y-6471443D01*
X7841535Y-6537948D01*
X7782768Y-6600377D01*
X7730409Y-6656295D01*
X7629533Y-6764406D01*
X7627601Y-6766477D01*
X7445778Y-6766477D01*
X7447290Y-6764406D01*
X7439148Y-6753383D01*
X7415478Y-6726999D01*
X7378478Y-6687527D01*
X7330350Y-6637191D01*
X7273296Y-6578217D01*
X7209520Y-6512830D01*
X7141222Y-6443255D01*
X7070605Y-6371716D01*
X6999871Y-6300438D01*
X6931222Y-6231647D01*
X6866861Y-6167566D01*
X6808989Y-6110422D01*
X6759810Y-6062439D01*
X6721524Y-6025841D01*
X6696334Y-6002854D01*
X6686442Y-5995703D01*
X6686253Y-6003732D01*
X6557067Y-6003732D01*
X6555390Y-5991089D01*
X6280297Y-5991089D01*
X6280140Y-5890495D01*
X6380891Y-5890495D01*
X6462624Y-5890495D01*
X6469895Y-5890489D01*
X6510950Y-5889613D01*
X6533277Y-5885867D01*
X6542529Y-5877270D01*
X6544357Y-5861840D01*
X6536306Y-5839159D01*
X6508730Y-5801428D01*
X6462624Y-5752179D01*
X6380891Y-5671172D01*
X6380891Y-5890495D01*
X6280140Y-5890495D01*
X6279968Y-5780471D01*
X6279639Y-5569852D01*
X5827914Y-5110891D01*
X5376189Y-4651931D01*
X5375570Y-4564848D01*
X5374951Y-4477767D01*
X5916769Y-5026952D01*
X5969137Y-5079998D01*
X6077803Y-5189772D01*
X6170709Y-5283114D01*
X6249055Y-5361173D01*
X6314043Y-5425097D01*
X6366872Y-5476035D01*
X6408743Y-5515135D01*
X6440855Y-5543548D01*
X6464410Y-5562420D01*
X6480608Y-5572901D01*
X6490649Y-5576139D01*
X6507579Y-5575158D01*
X6517084Y-5567996D01*
X6518723Y-5548401D01*
X6514782Y-5510124D01*
X6512065Y-5486025D01*
X6508284Y-5445744D01*
X6506760Y-5418961D01*
X6506015Y-5409728D01*
X6498746Y-5399839D01*
X6478668Y-5396562D01*
X6439689Y-5397992D01*
X6429737Y-5398553D01*
X6389898Y-5397921D01*
X6361560Y-5389167D01*
X6341586Y-5374951D01*
X6624852Y-5374951D01*
X6629013Y-5422104D01*
X6630935Y-5443498D01*
X6636924Y-5501909D01*
X6642826Y-5540381D01*
X6649727Y-5562912D01*
X6658712Y-5573498D01*
X6670870Y-5576139D01*
X6681801Y-5577937D01*
X6689050Y-5586530D01*
X6693100Y-5606505D01*
X6694863Y-5642450D01*
X6695248Y-5698952D01*
X6695248Y-5821766D01*
X6735447Y-5861840D01*
X6833565Y-5959654D01*
X6971881Y-6097542D01*
X6971881Y-5991089D01*
X7726337Y-5991089D01*
X7726337Y-6230000D01*
X7107831Y-6230000D01*
X7317592Y-6446906D01*
X7357770Y-6488334D01*
X7413328Y-6545200D01*
X7461570Y-6594082D01*
X7499971Y-6632441D01*
X7526003Y-6657741D01*
X7537140Y-6667442D01*
X7541373Y-6664767D01*
X7561224Y-6646782D01*
X7595451Y-6613481D01*
X7642227Y-6566712D01*
X7699724Y-6508325D01*
X7766112Y-6440169D01*
X7839564Y-6364094D01*
X7918251Y-6281950D01*
X7997341Y-6198943D01*
X8074871Y-6117136D01*
X8137746Y-6050083D01*
X8187502Y-5996007D01*
X8225678Y-5953129D01*
X8253811Y-5919673D01*
X8273440Y-5893861D01*
X8286101Y-5873914D01*
X8293334Y-5858056D01*
X8296675Y-5844509D01*
X8297561Y-5837910D01*
X8301488Y-5801548D01*
X8306459Y-5748018D01*
X8311927Y-5683421D01*
X8317344Y-5613862D01*
X8319181Y-5589635D01*
X8324488Y-5524178D01*
X8329548Y-5467717D01*
X8333863Y-5425618D01*
X8336934Y-5403243D01*
X8342955Y-5374951D01*
X6624852Y-5374951D01*
X6341586Y-5374951D01*
X6333630Y-5369289D01*
X6328820Y-5365104D01*
X6289482Y-5314427D01*
X6273903Y-5261782D01*
X6614698Y-5261782D01*
X8029221Y-5261782D01*
X8241881Y-5261782D01*
X8298908Y-5261782D01*
X8315993Y-5261662D01*
X8341308Y-5259462D01*
X8348616Y-5252334D01*
X8342943Y-5237508D01*
X8341267Y-5234682D01*
X8322448Y-5212944D01*
X8295183Y-5188820D01*
X8267987Y-5169254D01*
X8249371Y-5161188D01*
X8247697Y-5162463D01*
X8243544Y-5179976D01*
X8241881Y-5211485D01*
X8241881Y-5261782D01*
X8029221Y-5261782D01*
X8025526Y-5171095D01*
X8021832Y-5080407D01*
X7946386Y-5065252D01*
X7908551Y-5058379D01*
X7845368Y-5048756D01*
X7786065Y-5041496D01*
X7701188Y-5032893D01*
X7701188Y-5136040D01*
X7122773Y-5136040D01*
X7122773Y-5045122D01*
X7050471Y-5053753D01*
X6939998Y-5072249D01*
X6828816Y-5105691D01*
X6736850Y-5152324D01*
X6662542Y-5212786D01*
X6614698Y-5261782D01*
X6273903Y-5261782D01*
X6272172Y-5255934D01*
X6277474Y-5194575D01*
X6305975Y-5135297D01*
X6308733Y-5131606D01*
X6346822Y-5099851D01*
X6396476Y-5081067D01*
X6450002Y-5076071D01*
X6499707Y-5085678D01*
X6537900Y-5110704D01*
X6550831Y-5123480D01*
X6563428Y-5126576D01*
X6581467Y-5116998D01*
X6611928Y-5093082D01*
X6621274Y-5085731D01*
X6693430Y-5039339D01*
X6778915Y-4998084D01*
X6848830Y-4972575D01*
X7223367Y-4972575D01*
X7223367Y-5035446D01*
X7600594Y-5035446D01*
X7600594Y-4972575D01*
X7223367Y-4972575D01*
X6848830Y-4972575D01*
X6869767Y-4964936D01*
X6958027Y-4942868D01*
X7035736Y-4934852D01*
X7043991Y-4934788D01*
X7089879Y-4930321D01*
X7115079Y-4917795D01*
X7122773Y-4895784D01*
X7123676Y-4888849D01*
X7128615Y-4882885D01*
X7140611Y-4878519D01*
X7162680Y-4875503D01*
X7197836Y-4873590D01*
X7249094Y-4872530D01*
X7319471Y-4872077D01*
X7411980Y-4871980D01*
X7498660Y-4872150D01*
X7572332Y-4872834D01*
X7626265Y-4874215D01*
X7663288Y-4876470D01*
X7686230Y-4879778D01*
X7697920Y-4884320D01*
X7701188Y-4890272D01*
X7711937Y-4904888D01*
X7742055Y-4914215D01*
X7753582Y-4915847D01*
X7792886Y-4921591D01*
X7845188Y-4929378D01*
X7902376Y-4938003D01*
X7933916Y-4942393D01*
X7980074Y-4947148D01*
X8012641Y-4948295D01*
X8026023Y-4945495D01*
X8028308Y-4943671D01*
X8049405Y-4939165D01*
X8087355Y-4936029D01*
X8136048Y-4934852D01*
X8241881Y-4934852D01*
X8241894Y-4972575D01*
X8241894Y-4975718D01*
X8242388Y-4988668D01*
X8248819Y-5010411D01*
X8267123Y-5028851D01*
X8302830Y-5050801D01*
X8334174Y-5070854D01*
X8381893Y-5109356D01*
X8425138Y-5152579D01*
X8458219Y-5194627D01*
X8475442Y-5229604D01*
X8479662Y-5243081D01*
X8487480Y-5252334D01*
X8490116Y-5255454D01*
X8511662Y-5260696D01*
G37*
X8511662Y-5260696D02*
X8551314Y-5261782D01*
X8619109Y-5261782D01*
X8619109Y-5374951D01*
X8459577Y-5374951D01*
X8444682Y-5552732D01*
X8442682Y-5577037D01*
X8438023Y-5637880D01*
X8434731Y-5687389D01*
X8433092Y-5720992D01*
X8433390Y-5734116D01*
X8437724Y-5730343D01*
X8457496Y-5710676D01*
X8491679Y-5675818D01*
X8538541Y-5627576D01*
X8596354Y-5567757D01*
X8663387Y-5498167D01*
X8737912Y-5420615D01*
X8818197Y-5336907D01*
X8902513Y-5248849D01*
X8989130Y-5158250D01*
X9076319Y-5066915D01*
X9162349Y-4976653D01*
X9245492Y-4889269D01*
X9324016Y-4806572D01*
X9396192Y-4730368D01*
X9460291Y-4662463D01*
X9514583Y-4604666D01*
X9611592Y-4501040D01*
X9612034Y-4589315D01*
X9612475Y-4677589D01*
X9011938Y-5309158D01*
X8411401Y-5940726D01*
X8399396Y-6084674D01*
X8351365Y-6660635D01*
X8342876Y-6762791D01*
X8332343Y-6890612D01*
X8322621Y-7009767D01*
X8313898Y-7117914D01*
X8306358Y-7212713D01*
X8300187Y-7291819D01*
X8295573Y-7352892D01*
X8292700Y-7393590D01*
X8291754Y-7411570D01*
X8294251Y-7419808D01*
X8305471Y-7437599D01*
X8326751Y-7464411D01*
X8337021Y-7476129D01*
X8359225Y-7501466D01*
X8404023Y-7549986D01*
X8462281Y-7611192D01*
X8535129Y-7686307D01*
X8623703Y-7776550D01*
X8729134Y-7883145D01*
X8798492Y-7953093D01*
X8895179Y-8050658D01*
X8991526Y-8147941D01*
X9084638Y-8242014D01*
X9171618Y-8329950D01*
X9249569Y-8408820D01*
X9315596Y-8475699D01*
X9366802Y-8527658D01*
X9567514Y-8731620D01*
X9531058Y-8769671D01*
X9522460Y-8778245D01*
X9497095Y-8799297D01*
X9479695Y-8807723D01*
X9466071Y-8800530D01*
X9440743Y-8778944D01*
X9410379Y-8747995D01*
X9391896Y-8728448D01*
X9357427Y-8692752D01*
X9308712Y-8642684D01*
X9247469Y-8580001D01*
X9175420Y-8506457D01*
X9094285Y-8423810D01*
X9005784Y-8333815D01*
X8911637Y-8238228D01*
X8813565Y-8138805D01*
X8271161Y-7589343D01*
X8249066Y-7874746D01*
X8244250Y-7935662D01*
X8237216Y-8017548D01*
X8230872Y-8079569D01*
X8224748Y-8124987D01*
X8218373Y-8157062D01*
X8211277Y-8179052D01*
X8202991Y-8194219D01*
X8191393Y-8215416D01*
X8181850Y-8254386D01*
X8179010Y-8310531D01*
X8179010Y-8392773D01*
X7952674Y-8392773D01*
X7952674Y-8216733D01*
X7107082Y-8216733D01*
X7058203Y-8272262D01*
X7044836Y-8286722D01*
X6972388Y-8344813D01*
X6890532Y-8380576D01*
X6801900Y-8392773D01*
X6723692Y-8386306D01*
X6635233Y-8359047D01*
X6559507Y-8310328D01*
X6544748Y-8296403D01*
X6507864Y-8251328D01*
X6475503Y-8198819D01*
X6452297Y-8147061D01*
X6442879Y-8104239D01*
X6442697Y-8098023D01*
X6441342Y-8075246D01*
X6437800Y-8059513D01*
X6430390Y-8052068D01*
X6417431Y-8054156D01*
X6397243Y-8067020D01*
X6368145Y-8091905D01*
X6328456Y-8130053D01*
X6276496Y-8182710D01*
X6210584Y-8251119D01*
X6129040Y-8336524D01*
X6085604Y-8382112D01*
X6013000Y-8458441D01*
X5944309Y-8530808D01*
X5882223Y-8596366D01*
X5829434Y-8652274D01*
X5788634Y-8695686D01*
X5762515Y-8723758D01*
X5691119Y-8801436D01*
X5602863Y-8713416D01*
X6148690Y-8141287D01*
X6183105Y-8105188D01*
X6305546Y-7976272D01*
X6410651Y-7864754D01*
X6498736Y-7770288D01*
X6570116Y-7692529D01*
X6620588Y-7636174D01*
X6827247Y-7636174D01*
X6828872Y-7649434D01*
X6829156Y-7650819D01*
X6842698Y-7682228D01*
X6869748Y-7696863D01*
X6953129Y-7728063D01*
X7027418Y-7780038D01*
X7085846Y-7848791D01*
X7125890Y-7931315D01*
X7145026Y-8024606D01*
X7151364Y-8103565D01*
X8100838Y-8103565D01*
X8107458Y-8075273D01*
X8108629Y-8068329D01*
X8112268Y-8037281D01*
X8117234Y-7987081D01*
X8123157Y-7921727D01*
X8129669Y-7845219D01*
X8136401Y-7761555D01*
X8158724Y-7476129D01*
X7857826Y-7170565D01*
X7802636Y-7114704D01*
X7735109Y-7046888D01*
X7674529Y-6986643D01*
X7623021Y-6936052D01*
X7582710Y-6897200D01*
X7555722Y-6872170D01*
X7544182Y-6863046D01*
X7536444Y-6867405D01*
X7513395Y-6887241D01*
X7478709Y-6920375D01*
X7435487Y-6963820D01*
X7386832Y-7014587D01*
X7374140Y-7028051D01*
X7317229Y-7088275D01*
X7249414Y-7159864D01*
X7175800Y-7237437D01*
X7101493Y-7315611D01*
X7031599Y-7389005D01*
X7027401Y-7393409D01*
X6962420Y-7461785D01*
X6912836Y-7514732D01*
X6876688Y-7554767D01*
X6852016Y-7584411D01*
X6836858Y-7606181D01*
X6829256Y-7622595D01*
X6827247Y-7636174D01*
X6620588Y-7636174D01*
X6625105Y-7631131D01*
X6664019Y-7585748D01*
X6687173Y-7556035D01*
X6694882Y-7541644D01*
X6694883Y-7541559D01*
X6693825Y-7523624D01*
X6690737Y-7483421D01*
X6685858Y-7423687D01*
X6679432Y-7347158D01*
X6671700Y-7256569D01*
X6662905Y-7154657D01*
X6653287Y-7044159D01*
X6643091Y-6927811D01*
X6632556Y-6808348D01*
X6621926Y-6688507D01*
X6611442Y-6571025D01*
X6601346Y-6458637D01*
X6591881Y-6354081D01*
X6583288Y-6260091D01*
X6575809Y-6179405D01*
X6569687Y-6114759D01*
X6565162Y-6068888D01*
X6562478Y-6044530D01*
X6557067Y-6003732D01*
X6686253Y-6003732D01*
X6687908Y-6034653D01*
X6691549Y-6086653D01*
X6696995Y-6157487D01*
X6704063Y-6244911D01*
X6712570Y-6346681D01*
X6722335Y-6460552D01*
X6733174Y-6584279D01*
X6744907Y-6715618D01*
X6754079Y-6816908D01*
X6765566Y-6942526D01*
X6776322Y-7058762D01*
X6786131Y-7163380D01*
X6794781Y-7254140D01*
X6802057Y-7328804D01*
X6807746Y-7385134D01*
X6811634Y-7420891D01*
X6813506Y-7433837D01*
X6819188Y-7429826D01*
X6840020Y-7410138D01*
X6873872Y-7376322D01*
X6918412Y-7330837D01*
X6971310Y-7276146D01*
X7030236Y-7214710D01*
X7092858Y-7148990D01*
X7156848Y-7081449D01*
X7219874Y-7014547D01*
X7279606Y-6950746D01*
X7333713Y-6892507D01*
X7379865Y-6842292D01*
X7415733Y-6802563D01*
X7438984Y-6775780D01*
X7445778Y-6766477D01*
X7627601Y-6766477D01*
X7903305Y-7041968D01*
X7970726Y-7109224D01*
X8034267Y-7172162D01*
X8083490Y-7220100D01*
X8120196Y-7254594D01*
X8146190Y-7277199D01*
X8163276Y-7289471D01*
X8173256Y-7292966D01*
X8177935Y-7289238D01*
X8179116Y-7279844D01*
X8179873Y-7264749D01*
X8182601Y-7225883D01*
X8187108Y-7166895D01*
X8193179Y-7090473D01*
X8200596Y-6999305D01*
X8209142Y-6896080D01*
X8218602Y-6783483D01*
X8228758Y-6664205D01*
X8237723Y-6559077D01*
X8247066Y-6448351D01*
X8255443Y-6347814D01*
X8262653Y-6259943D01*
X8268496Y-6187215D01*
X8272769Y-6132110D01*
X8275273Y-6097104D01*
X8275805Y-6084674D01*
X8275384Y-6084908D01*
X8263509Y-6096350D01*
X8237130Y-6123198D01*
X8198570Y-6163018D01*
X8150153Y-6213372D01*
X8094203Y-6271828D01*
X8033042Y-6335948D01*
X7968995Y-6403298D01*
X7904385Y-6471443D01*
X7841535Y-6537948D01*
X7782768Y-6600377D01*
X7730409Y-6656295D01*
X7629533Y-6764406D01*
X7627601Y-6766477D01*
X7445778Y-6766477D01*
X7447290Y-6764406D01*
X7439148Y-6753383D01*
X7415478Y-6726999D01*
X7378478Y-6687527D01*
X7330350Y-6637191D01*
X7273296Y-6578217D01*
X7209520Y-6512830D01*
X7141222Y-6443255D01*
X7070605Y-6371716D01*
X6999871Y-6300438D01*
X6931222Y-6231647D01*
X6866861Y-6167566D01*
X6808989Y-6110422D01*
X6759810Y-6062439D01*
X6721524Y-6025841D01*
X6696334Y-6002854D01*
X6686442Y-5995703D01*
X6686253Y-6003732D01*
X6557067Y-6003732D01*
X6555390Y-5991089D01*
X6280297Y-5991089D01*
X6280140Y-5890495D01*
X6380891Y-5890495D01*
X6462624Y-5890495D01*
X6469895Y-5890489D01*
X6510950Y-5889613D01*
X6533277Y-5885867D01*
X6542529Y-5877270D01*
X6544357Y-5861840D01*
X6536306Y-5839159D01*
X6508730Y-5801428D01*
X6462624Y-5752179D01*
X6380891Y-5671172D01*
X6380891Y-5890495D01*
X6280140Y-5890495D01*
X6279968Y-5780471D01*
X6279639Y-5569852D01*
X5827914Y-5110891D01*
X5376189Y-4651931D01*
X5375570Y-4564848D01*
X5374951Y-4477767D01*
X5916769Y-5026952D01*
X5969137Y-5079998D01*
X6077803Y-5189772D01*
X6170709Y-5283114D01*
X6249055Y-5361173D01*
X6314043Y-5425097D01*
X6366872Y-5476035D01*
X6408743Y-5515135D01*
X6440855Y-5543548D01*
X6464410Y-5562420D01*
X6480608Y-5572901D01*
X6490649Y-5576139D01*
X6507579Y-5575158D01*
X6517084Y-5567996D01*
X6518723Y-5548401D01*
X6514782Y-5510124D01*
X6512065Y-5486025D01*
X6508284Y-5445744D01*
X6506760Y-5418961D01*
X6506015Y-5409728D01*
X6498746Y-5399839D01*
X6478668Y-5396562D01*
X6439689Y-5397992D01*
X6429737Y-5398553D01*
X6389898Y-5397921D01*
X6361560Y-5389167D01*
X6341586Y-5374951D01*
X6624852Y-5374951D01*
X6629013Y-5422104D01*
X6630935Y-5443498D01*
X6636924Y-5501909D01*
X6642826Y-5540381D01*
X6649727Y-5562912D01*
X6658712Y-5573498D01*
X6670870Y-5576139D01*
X6681801Y-5577937D01*
X6689050Y-5586530D01*
X6693100Y-5606505D01*
X6694863Y-5642450D01*
X6695248Y-5698952D01*
X6695248Y-5821766D01*
X6735447Y-5861840D01*
X6833565Y-5959654D01*
X6971881Y-6097542D01*
X6971881Y-5991089D01*
X7726337Y-5991089D01*
X7726337Y-6230000D01*
X7107831Y-6230000D01*
X7317592Y-6446906D01*
X7357770Y-6488334D01*
X7413328Y-6545200D01*
X7461570Y-6594082D01*
X7499971Y-6632441D01*
X7526003Y-6657741D01*
X7537140Y-6667442D01*
X7541373Y-6664767D01*
X7561224Y-6646782D01*
X7595451Y-6613481D01*
X7642227Y-6566712D01*
X7699724Y-6508325D01*
X7766112Y-6440169D01*
X7839564Y-6364094D01*
X7918251Y-6281950D01*
X7997341Y-6198943D01*
X8074871Y-6117136D01*
X8137746Y-6050083D01*
X8187502Y-5996007D01*
X8225678Y-5953129D01*
X8253811Y-5919673D01*
X8273440Y-5893861D01*
X8286101Y-5873914D01*
X8293334Y-5858056D01*
X8296675Y-5844509D01*
X8297561Y-5837910D01*
X8301488Y-5801548D01*
X8306459Y-5748018D01*
X8311927Y-5683421D01*
X8317344Y-5613862D01*
X8319181Y-5589635D01*
X8324488Y-5524178D01*
X8329548Y-5467717D01*
X8333863Y-5425618D01*
X8336934Y-5403243D01*
X8342955Y-5374951D01*
X6624852Y-5374951D01*
X6341586Y-5374951D01*
X6333630Y-5369289D01*
X6328820Y-5365104D01*
X6289482Y-5314427D01*
X6273903Y-5261782D01*
X6614698Y-5261782D01*
X8029221Y-5261782D01*
X8241881Y-5261782D01*
X8298908Y-5261782D01*
X8315993Y-5261662D01*
X8341308Y-5259462D01*
X8348616Y-5252334D01*
X8342943Y-5237508D01*
X8341267Y-5234682D01*
X8322448Y-5212944D01*
X8295183Y-5188820D01*
X8267987Y-5169254D01*
X8249371Y-5161188D01*
X8247697Y-5162463D01*
X8243544Y-5179976D01*
X8241881Y-5211485D01*
X8241881Y-5261782D01*
X8029221Y-5261782D01*
X8025526Y-5171095D01*
X8021832Y-5080407D01*
X7946386Y-5065252D01*
X7908551Y-5058379D01*
X7845368Y-5048756D01*
X7786065Y-5041496D01*
X7701188Y-5032893D01*
X7701188Y-5136040D01*
X7122773Y-5136040D01*
X7122773Y-5045122D01*
X7050471Y-5053753D01*
X6939998Y-5072249D01*
X6828816Y-5105691D01*
X6736850Y-5152324D01*
X6662542Y-5212786D01*
X6614698Y-5261782D01*
X6273903Y-5261782D01*
X6272172Y-5255934D01*
X6277474Y-5194575D01*
X6305975Y-5135297D01*
X6308733Y-5131606D01*
X6346822Y-5099851D01*
X6396476Y-5081067D01*
X6450002Y-5076071D01*
X6499707Y-5085678D01*
X6537900Y-5110704D01*
X6550831Y-5123480D01*
X6563428Y-5126576D01*
X6581467Y-5116998D01*
X6611928Y-5093082D01*
X6621274Y-5085731D01*
X6693430Y-5039339D01*
X6778915Y-4998084D01*
X6848830Y-4972575D01*
X7223367Y-4972575D01*
X7223367Y-5035446D01*
X7600594Y-5035446D01*
X7600594Y-4972575D01*
X7223367Y-4972575D01*
X6848830Y-4972575D01*
X6869767Y-4964936D01*
X6958027Y-4942868D01*
X7035736Y-4934852D01*
X7043991Y-4934788D01*
X7089879Y-4930321D01*
X7115079Y-4917795D01*
X7122773Y-4895784D01*
X7123676Y-4888849D01*
X7128615Y-4882885D01*
X7140611Y-4878519D01*
X7162680Y-4875503D01*
X7197836Y-4873590D01*
X7249094Y-4872530D01*
X7319471Y-4872077D01*
X7411980Y-4871980D01*
X7498660Y-4872150D01*
X7572332Y-4872834D01*
X7626265Y-4874215D01*
X7663288Y-4876470D01*
X7686230Y-4879778D01*
X7697920Y-4884320D01*
X7701188Y-4890272D01*
X7711937Y-4904888D01*
X7742055Y-4914215D01*
X7753582Y-4915847D01*
X7792886Y-4921591D01*
X7845188Y-4929378D01*
X7902376Y-4938003D01*
X7933916Y-4942393D01*
X7980074Y-4947148D01*
X8012641Y-4948295D01*
X8026023Y-4945495D01*
X8028308Y-4943671D01*
X8049405Y-4939165D01*
X8087355Y-4936029D01*
X8136048Y-4934852D01*
X8241881Y-4934852D01*
X8241894Y-4972575D01*
X8241894Y-4975718D01*
X8242388Y-4988668D01*
X8248819Y-5010411D01*
X8267123Y-5028851D01*
X8302830Y-5050801D01*
X8334174Y-5070854D01*
X8381893Y-5109356D01*
X8425138Y-5152579D01*
X8458219Y-5194627D01*
X8475442Y-5229604D01*
X8479662Y-5243081D01*
X8487480Y-5252334D01*
X8490116Y-5255454D01*
X8511662Y-5260696D01*
G04 #@! TO.C,kibuzzard-62971ED3*
G36*
X7118919Y-1861299D02*
G01*
X7146965Y-1780125D01*
X7209116Y-1700829D01*
X7294602Y-1674397D01*
X7378899Y-1700829D01*
X7441288Y-1780125D01*
X7469863Y-1861299D01*
X7487008Y-1963852D01*
X7492723Y-2087783D01*
X7487008Y-2212772D01*
X7469863Y-2315959D01*
X7441288Y-2397345D01*
X7378899Y-2476641D01*
X7294602Y-2503073D01*
X7209116Y-2476641D01*
X7146965Y-2397345D01*
X7118919Y-2315959D01*
X7102092Y-2212772D01*
X7096482Y-2087783D01*
X7097344Y-2068733D01*
X7187922Y-2068733D01*
X7217450Y-2157315D01*
X7292697Y-2194463D01*
X7370803Y-2157315D01*
X7399378Y-2068733D01*
X7370803Y-1979197D01*
X7292697Y-1941097D01*
X7217450Y-1979197D01*
X7187922Y-2068733D01*
X7097344Y-2068733D01*
X7102092Y-1963852D01*
X7118919Y-1861299D01*
G37*
G36*
X5213919Y-1861299D02*
G01*
X5241965Y-1780125D01*
X5304116Y-1700829D01*
X5389602Y-1674397D01*
X5473899Y-1700829D01*
X5536287Y-1780125D01*
X5564862Y-1861299D01*
X5582007Y-1963852D01*
X5587722Y-2087783D01*
X5582007Y-2212772D01*
X5564862Y-2315959D01*
X5536287Y-2397345D01*
X5473899Y-2476641D01*
X5389602Y-2503073D01*
X5304116Y-2476641D01*
X5241965Y-2397345D01*
X5213919Y-2315959D01*
X5197092Y-2212772D01*
X5191482Y-2087783D01*
X5192344Y-2068733D01*
X5282922Y-2068733D01*
X5312450Y-2157315D01*
X5387697Y-2194463D01*
X5465802Y-2157315D01*
X5494377Y-2068733D01*
X5465802Y-1979197D01*
X5387697Y-1941097D01*
X5312450Y-1979197D01*
X5282922Y-2068733D01*
X5192344Y-2068733D01*
X5197092Y-1963852D01*
X5213919Y-1861299D01*
G37*
G36*
X12426302Y-3101878D02*
G01*
X2173698Y-3101878D01*
X2173698Y-2087783D01*
X3075027Y-2087783D01*
X3081576Y-2233991D01*
X3101221Y-2360198D01*
X3133963Y-2466401D01*
X3179803Y-2552602D01*
X3260236Y-2637269D01*
X3361836Y-2688069D01*
X3484602Y-2705003D01*
X3607369Y-2688069D01*
X3623031Y-2680238D01*
X4033242Y-2680238D01*
X4802862Y-2680238D01*
X4807625Y-2632613D01*
X4806672Y-2592608D01*
X4797862Y-2501168D01*
X4771430Y-2417348D01*
X4731425Y-2340433D01*
X4681895Y-2269710D01*
X4625697Y-2204464D01*
X4565690Y-2143980D01*
X4506436Y-2087783D01*
X4980027Y-2087783D01*
X4986576Y-2233991D01*
X5006221Y-2360198D01*
X5038963Y-2466401D01*
X5084802Y-2552602D01*
X5165236Y-2637269D01*
X5266836Y-2688069D01*
X5389602Y-2705003D01*
X5512369Y-2688069D01*
X5528031Y-2680238D01*
X5943957Y-2680238D01*
X6660237Y-2680238D01*
X6660237Y-2485928D01*
X6412587Y-2485928D01*
X6412587Y-2087783D01*
X6885027Y-2087783D01*
X6891576Y-2233991D01*
X6911221Y-2360198D01*
X6943963Y-2466401D01*
X6989802Y-2552602D01*
X7070236Y-2637269D01*
X7171836Y-2688069D01*
X7294602Y-2705003D01*
X7417369Y-2688069D01*
X7518969Y-2637269D01*
X7599403Y-2552602D01*
X7645242Y-2466401D01*
X7677984Y-2360198D01*
X7697629Y-2233991D01*
X7704178Y-2087783D01*
X7837528Y-2087783D01*
X7844076Y-2233991D01*
X7863721Y-2360198D01*
X7896463Y-2466401D01*
X7942303Y-2552602D01*
X8022736Y-2637269D01*
X8124336Y-2688069D01*
X8247103Y-2705003D01*
X8369869Y-2688069D01*
X8471469Y-2637269D01*
X8484941Y-2623088D01*
X8782408Y-2623088D01*
X8916710Y-2679285D01*
X9007912Y-2698573D01*
X9111973Y-2705003D01*
X9265219Y-2687223D01*
X9281850Y-2680238D01*
X9752053Y-2680238D01*
X10508338Y-2680238D01*
X10704553Y-2680238D01*
X11445598Y-2680238D01*
X11445598Y-1501042D01*
X11209378Y-1501042D01*
X11209378Y-2485928D01*
X10704553Y-2485928D01*
X10704553Y-2680238D01*
X10508338Y-2680238D01*
X10508338Y-1501042D01*
X9793963Y-1501042D01*
X9793963Y-1695352D01*
X10274023Y-1695352D01*
X10274023Y-1960147D01*
X9856828Y-1960147D01*
X9856828Y-2154458D01*
X10274023Y-2154458D01*
X10274023Y-2485928D01*
X9752053Y-2485928D01*
X9752053Y-2680238D01*
X9281850Y-2680238D01*
X9392219Y-2633883D01*
X9492973Y-2544983D01*
X9550480Y-2456519D01*
X9591556Y-2351149D01*
X9616202Y-2228872D01*
X9624418Y-2089688D01*
X9614416Y-1951099D01*
X9584413Y-1828702D01*
X9536549Y-1723213D01*
X9472970Y-1635345D01*
X9394865Y-1565812D01*
X9303425Y-1515330D01*
X9200793Y-1484612D01*
X9089113Y-1474372D01*
X8975765Y-1484850D01*
X8887183Y-1508662D01*
X8823365Y-1537237D01*
X8784313Y-1560097D01*
X8845273Y-1746787D01*
X8951000Y-1698210D01*
X9092923Y-1678207D01*
X9200555Y-1698210D01*
X9293900Y-1764885D01*
X9360575Y-1889662D01*
X9379863Y-1977292D01*
X9386292Y-2083973D01*
X9378567Y-2208115D01*
X9355389Y-2311303D01*
X9316760Y-2393535D01*
X9225082Y-2474259D01*
X9089113Y-2501168D01*
X8937665Y-2480213D01*
X8841463Y-2438303D01*
X8782408Y-2623088D01*
X8484941Y-2623088D01*
X8551903Y-2552602D01*
X8597742Y-2466401D01*
X8630484Y-2360198D01*
X8650129Y-2233991D01*
X8656678Y-2087783D01*
X8650010Y-1943241D01*
X8630008Y-1818225D01*
X8596670Y-1712736D01*
X8549998Y-1626772D01*
X8468929Y-1542106D01*
X8367964Y-1491306D01*
X8247103Y-1474372D01*
X8124336Y-1491200D01*
X8022736Y-1541682D01*
X7942303Y-1625820D01*
X7896463Y-1711485D01*
X7863721Y-1817034D01*
X7844076Y-1942467D01*
X7837528Y-2087783D01*
X7704178Y-2087783D01*
X7697510Y-1943241D01*
X7677508Y-1818225D01*
X7644170Y-1712736D01*
X7597498Y-1626772D01*
X7516429Y-1542106D01*
X7415464Y-1491306D01*
X7294602Y-1474372D01*
X7171836Y-1491200D01*
X7070236Y-1541682D01*
X6989802Y-1625820D01*
X6943963Y-1711485D01*
X6911221Y-1817034D01*
X6891576Y-1942467D01*
X6885027Y-2087783D01*
X6412587Y-2087783D01*
X6412587Y-1826797D01*
X6534507Y-1894425D01*
X6650712Y-1941097D01*
X6726912Y-1746787D01*
X6627852Y-1702972D01*
X6521172Y-1643917D01*
X6420207Y-1575337D01*
X6338292Y-1501042D01*
X6178272Y-1501042D01*
X6178272Y-2485928D01*
X5943957Y-2485928D01*
X5943957Y-2680238D01*
X5528031Y-2680238D01*
X5613969Y-2637269D01*
X5694402Y-2552602D01*
X5740242Y-2466401D01*
X5772984Y-2360198D01*
X5792629Y-2233991D01*
X5799177Y-2087783D01*
X5792510Y-1943241D01*
X5772507Y-1818225D01*
X5739170Y-1712736D01*
X5692497Y-1626772D01*
X5611429Y-1542106D01*
X5510464Y-1491306D01*
X5389602Y-1474372D01*
X5266836Y-1491200D01*
X5165236Y-1541682D01*
X5084802Y-1625820D01*
X5038963Y-1711485D01*
X5006221Y-1817034D01*
X4986576Y-1942467D01*
X4980027Y-2087783D01*
X4506436Y-2087783D01*
X4505682Y-2087068D01*
X4449485Y-2032537D01*
X4359950Y-1929667D01*
X4324707Y-1828702D01*
X4368522Y-1717260D01*
X4479012Y-1678207D01*
X4595217Y-1704877D01*
X4715232Y-1794412D01*
X4831437Y-1630582D01*
X4749284Y-1561050D01*
X4655225Y-1512472D01*
X4555451Y-1483897D01*
X4456152Y-1474372D01*
X4317087Y-1495327D01*
X4198977Y-1558192D01*
X4117062Y-1663920D01*
X4086582Y-1811557D01*
X4109442Y-1928715D01*
X4170402Y-2038252D01*
X4256127Y-2141123D01*
X4353282Y-2236373D01*
X4410432Y-2290665D01*
X4471392Y-2355435D01*
X4519970Y-2423063D01*
X4539972Y-2485928D01*
X4033242Y-2485928D01*
X4033242Y-2680238D01*
X3623031Y-2680238D01*
X3708969Y-2637269D01*
X3789402Y-2552602D01*
X3835242Y-2466401D01*
X3867984Y-2360198D01*
X3887629Y-2233991D01*
X3894177Y-2087783D01*
X3887510Y-1943241D01*
X3867507Y-1818225D01*
X3834170Y-1712736D01*
X3787497Y-1626772D01*
X3706429Y-1542106D01*
X3605464Y-1491306D01*
X3484602Y-1474372D01*
X3361836Y-1491200D01*
X3260236Y-1541682D01*
X3179803Y-1625820D01*
X3133963Y-1711485D01*
X3101221Y-1817034D01*
X3081576Y-1942467D01*
X3075027Y-2087783D01*
X2173698Y-2087783D01*
X2173698Y-998122D01*
X12426302Y-998122D01*
X12426302Y-3101878D01*
G37*
G36*
X3308919Y-1861299D02*
G01*
X3336965Y-1780125D01*
X3399116Y-1700829D01*
X3484602Y-1674397D01*
X3568899Y-1700829D01*
X3631287Y-1780125D01*
X3659862Y-1861299D01*
X3677007Y-1963852D01*
X3682722Y-2087783D01*
X3677007Y-2212772D01*
X3659862Y-2315959D01*
X3631287Y-2397345D01*
X3568899Y-2476641D01*
X3484602Y-2503073D01*
X3399116Y-2476641D01*
X3336965Y-2397345D01*
X3308919Y-2315959D01*
X3292092Y-2212772D01*
X3286482Y-2087783D01*
X3287344Y-2068733D01*
X3377922Y-2068733D01*
X3407450Y-2157315D01*
X3482697Y-2194463D01*
X3560802Y-2157315D01*
X3589377Y-2068733D01*
X3560802Y-1979197D01*
X3482697Y-1941097D01*
X3407450Y-1979197D01*
X3377922Y-2068733D01*
X3287344Y-2068733D01*
X3292092Y-1963852D01*
X3308919Y-1861299D01*
G37*
G36*
X8071419Y-1861299D02*
G01*
X8099465Y-1780125D01*
X8161616Y-1700829D01*
X8247103Y-1674397D01*
X8331399Y-1700829D01*
X8393788Y-1780125D01*
X8422363Y-1861299D01*
X8439508Y-1963852D01*
X8445223Y-2087783D01*
X8439508Y-2212772D01*
X8422363Y-2315959D01*
X8393788Y-2397345D01*
X8331399Y-2476641D01*
X8247103Y-2503073D01*
X8161616Y-2476641D01*
X8099465Y-2397345D01*
X8071419Y-2315959D01*
X8054592Y-2212772D01*
X8048983Y-2087783D01*
X8049845Y-2068733D01*
X8140423Y-2068733D01*
X8169950Y-2157315D01*
X8245198Y-2194463D01*
X8323303Y-2157315D01*
X8351878Y-2068733D01*
X8323303Y-1979197D01*
X8245198Y-1941097D01*
X8169950Y-1979197D01*
X8140423Y-2068733D01*
X8049845Y-2068733D01*
X8054592Y-1963852D01*
X8071419Y-1861299D01*
G37*
G04 #@! TO.C,REF\u002A\u002A*
G36*
X15789483Y-9860569D02*
G01*
X15839376Y-9889661D01*
X15861325Y-9912327D01*
X15903504Y-9980082D01*
X15917714Y-10053950D01*
X15917714Y-10104770D01*
X15870999Y-10085128D01*
X15838692Y-10065308D01*
X15813231Y-10024160D01*
X15810616Y-10015675D01*
X15782478Y-9972451D01*
X15740067Y-9949103D01*
X15691370Y-9948100D01*
X15644373Y-9971914D01*
X15637357Y-9978056D01*
X15613893Y-10004745D01*
X15610019Y-10028014D01*
X15627768Y-10050862D01*
X15669179Y-10076287D01*
X15736286Y-10107288D01*
X15740824Y-10109252D01*
X15815322Y-10143990D01*
X15866203Y-10174763D01*
X15897525Y-10205488D01*
X15913343Y-10240082D01*
X15917714Y-10282462D01*
X15911986Y-10329446D01*
X15883062Y-10389585D01*
X15832178Y-10432788D01*
X15795374Y-10445759D01*
X15743434Y-10452856D01*
X15692999Y-10451340D01*
X15656983Y-10440632D01*
X15653158Y-10437966D01*
X15642998Y-10419337D01*
X15650048Y-10386505D01*
X15662297Y-10360735D01*
X15681939Y-10350006D01*
X15719191Y-10350539D01*
X15770908Y-10347462D01*
X15804701Y-10326212D01*
X15816114Y-10286877D01*
X15816104Y-10285747D01*
X15809187Y-10262913D01*
X15785659Y-10241963D01*
X15739914Y-10217815D01*
X15677704Y-10188741D01*
X15636499Y-10172925D01*
X15612712Y-10173944D01*
X15601597Y-10194837D01*
X15598408Y-10238641D01*
X15598400Y-10308393D01*
X15598044Y-10351452D01*
X15596413Y-10404626D01*
X15593761Y-10441022D01*
X15590422Y-10454514D01*
X15589530Y-10454423D01*
X15570237Y-10447110D01*
X15538284Y-10431678D01*
X15494124Y-10408842D01*
X15499371Y-10203078D01*
X15499736Y-10189432D01*
X15503904Y-10093651D01*
X15511268Y-10021462D01*
X15523330Y-9968058D01*
X15541593Y-9928633D01*
X15567560Y-9898380D01*
X15602733Y-9872493D01*
X15603384Y-9872087D01*
X15660256Y-9850968D01*
X15726033Y-9847400D01*
X15789483Y-9860569D01*
G37*
X15789483Y-9860569D02*
X15839376Y-9889661D01*
X15861325Y-9912327D01*
X15903504Y-9980082D01*
X15917714Y-10053950D01*
X15917714Y-10104770D01*
X15870999Y-10085128D01*
X15838692Y-10065308D01*
X15813231Y-10024160D01*
X15810616Y-10015675D01*
X15782478Y-9972451D01*
X15740067Y-9949103D01*
X15691370Y-9948100D01*
X15644373Y-9971914D01*
X15637357Y-9978056D01*
X15613893Y-10004745D01*
X15610019Y-10028014D01*
X15627768Y-10050862D01*
X15669179Y-10076287D01*
X15736286Y-10107288D01*
X15740824Y-10109252D01*
X15815322Y-10143990D01*
X15866203Y-10174763D01*
X15897525Y-10205488D01*
X15913343Y-10240082D01*
X15917714Y-10282462D01*
X15911986Y-10329446D01*
X15883062Y-10389585D01*
X15832178Y-10432788D01*
X15795374Y-10445759D01*
X15743434Y-10452856D01*
X15692999Y-10451340D01*
X15656983Y-10440632D01*
X15653158Y-10437966D01*
X15642998Y-10419337D01*
X15650048Y-10386505D01*
X15662297Y-10360735D01*
X15681939Y-10350006D01*
X15719191Y-10350539D01*
X15770908Y-10347462D01*
X15804701Y-10326212D01*
X15816114Y-10286877D01*
X15816104Y-10285747D01*
X15809187Y-10262913D01*
X15785659Y-10241963D01*
X15739914Y-10217815D01*
X15677704Y-10188741D01*
X15636499Y-10172925D01*
X15612712Y-10173944D01*
X15601597Y-10194837D01*
X15598408Y-10238641D01*
X15598400Y-10308393D01*
X15598044Y-10351452D01*
X15596413Y-10404626D01*
X15593761Y-10441022D01*
X15590422Y-10454514D01*
X15589530Y-10454423D01*
X15570237Y-10447110D01*
X15538284Y-10431678D01*
X15494124Y-10408842D01*
X15499371Y-10203078D01*
X15499736Y-10189432D01*
X15503904Y-10093651D01*
X15511268Y-10021462D01*
X15523330Y-9968058D01*
X15541593Y-9928633D01*
X15567560Y-9898380D01*
X15602733Y-9872493D01*
X15603384Y-9872087D01*
X15660256Y-9850968D01*
X15726033Y-9847400D01*
X15789483Y-9860569D01*
G36*
X15307691Y-9866467D02*
G01*
X15312273Y-9869003D01*
X15349704Y-9898057D01*
X15383170Y-9935410D01*
X15389007Y-9943852D01*
X15400165Y-9963553D01*
X15408136Y-9986935D01*
X15413618Y-10019067D01*
X15417307Y-10065019D01*
X15419899Y-10129859D01*
X15422092Y-10218657D01*
X15422402Y-10233669D01*
X15423400Y-10330999D01*
X15421994Y-10399934D01*
X15418164Y-10440948D01*
X15411889Y-10454514D01*
X15392898Y-10450452D01*
X15360638Y-10438144D01*
X15353041Y-10434545D01*
X15341176Y-10426398D01*
X15332994Y-10413004D01*
X15327643Y-10389608D01*
X15324269Y-10351455D01*
X15322019Y-10293790D01*
X15320040Y-10211857D01*
X15319498Y-10187907D01*
X15317403Y-10112266D01*
X15314683Y-10059328D01*
X15310515Y-10024075D01*
X15304079Y-10001487D01*
X15294550Y-9986544D01*
X15281106Y-9974227D01*
X15241305Y-9952634D01*
X15192341Y-9948476D01*
X15148529Y-9964999D01*
X15117008Y-9999210D01*
X15104914Y-10048114D01*
X15104578Y-10061407D01*
X15097972Y-10085472D01*
X15078470Y-10089144D01*
X15040283Y-10074813D01*
X15031438Y-10070217D01*
X15007534Y-10043186D01*
X15007061Y-10002994D01*
X15029836Y-9947409D01*
X15050727Y-9917117D01*
X15104142Y-9874084D01*
X15170074Y-9849755D01*
X15240574Y-9846443D01*
X15307691Y-9866467D01*
G37*
X15307691Y-9866467D02*
X15312273Y-9869003D01*
X15349704Y-9898057D01*
X15383170Y-9935410D01*
X15389007Y-9943852D01*
X15400165Y-9963553D01*
X15408136Y-9986935D01*
X15413618Y-10019067D01*
X15417307Y-10065019D01*
X15419899Y-10129859D01*
X15422092Y-10218657D01*
X15422402Y-10233669D01*
X15423400Y-10330999D01*
X15421994Y-10399934D01*
X15418164Y-10440948D01*
X15411889Y-10454514D01*
X15392898Y-10450452D01*
X15360638Y-10438144D01*
X15353041Y-10434545D01*
X15341176Y-10426398D01*
X15332994Y-10413004D01*
X15327643Y-10389608D01*
X15324269Y-10351455D01*
X15322019Y-10293790D01*
X15320040Y-10211857D01*
X15319498Y-10187907D01*
X15317403Y-10112266D01*
X15314683Y-10059328D01*
X15310515Y-10024075D01*
X15304079Y-10001487D01*
X15294550Y-9986544D01*
X15281106Y-9974227D01*
X15241305Y-9952634D01*
X15192341Y-9948476D01*
X15148529Y-9964999D01*
X15117008Y-9999210D01*
X15104914Y-10048114D01*
X15104578Y-10061407D01*
X15097972Y-10085472D01*
X15078470Y-10089144D01*
X15040283Y-10074813D01*
X15031438Y-10070217D01*
X15007534Y-10043186D01*
X15007061Y-10002994D01*
X15029836Y-9947409D01*
X15050727Y-9917117D01*
X15104142Y-9874084D01*
X15170074Y-9849755D01*
X15240574Y-9846443D01*
X15307691Y-9866467D01*
G36*
X15813933Y-5142371D02*
G01*
X15889856Y-5142865D01*
X15944491Y-5144135D01*
X15981500Y-5146547D01*
X16004547Y-5150467D01*
X16017296Y-5156262D01*
X16023411Y-5164299D01*
X16026556Y-5174943D01*
X16026646Y-5175325D01*
X16031814Y-5200347D01*
X16041209Y-5248681D01*
X16053867Y-5315260D01*
X16068825Y-5395014D01*
X16085119Y-5482875D01*
X16086448Y-5490064D01*
X16102691Y-5575340D01*
X16117805Y-5650242D01*
X16130808Y-5710219D01*
X16140715Y-5750717D01*
X16146544Y-5767184D01*
X16146575Y-5767210D01*
X16164943Y-5776320D01*
X16202640Y-5791457D01*
X16251543Y-5809358D01*
X16254297Y-5810330D01*
X16316817Y-5833959D01*
X16389543Y-5863595D01*
X16457294Y-5893062D01*
X16568703Y-5943626D01*
X16815399Y-5775160D01*
X16832775Y-5763311D01*
X16907202Y-5712947D01*
X16973614Y-5668612D01*
X17028039Y-5632916D01*
X17066506Y-5608471D01*
X17085042Y-5597889D01*
X17097743Y-5600315D01*
X17126579Y-5619110D01*
X17171143Y-5656330D01*
X17232670Y-5713020D01*
X17312398Y-5790227D01*
X17319532Y-5797255D01*
X17382796Y-5860222D01*
X17438990Y-5917268D01*
X17484677Y-5964817D01*
X17516414Y-5999297D01*
X17530764Y-6017131D01*
X17530810Y-6017217D01*
X17532633Y-6030795D01*
X17525910Y-6052820D01*
X17508946Y-6086304D01*
X17480044Y-6134261D01*
X17437508Y-6199704D01*
X17379644Y-6285645D01*
X17369783Y-6300151D01*
X17319913Y-6373635D01*
X17275905Y-6438687D01*
X17240380Y-6491417D01*
X17215959Y-6527936D01*
X17205264Y-6544356D01*
X17204458Y-6547834D01*
X17209518Y-6573785D01*
X17224677Y-6616159D01*
X17247463Y-6667728D01*
X17278429Y-6735170D01*
X17313004Y-6815195D01*
X17342366Y-6887629D01*
X17349645Y-6906377D01*
X17368710Y-6954246D01*
X17382715Y-6987596D01*
X17389041Y-7000114D01*
X17396025Y-7001050D01*
X17427413Y-7006461D01*
X17478787Y-7015806D01*
X17544802Y-7028069D01*
X17620113Y-7042232D01*
X17699375Y-7057280D01*
X17777243Y-7072195D01*
X17848370Y-7085961D01*
X17907412Y-7097562D01*
X17949022Y-7105980D01*
X17967857Y-7110199D01*
X17970980Y-7111389D01*
X17978591Y-7117805D01*
X17984254Y-7131465D01*
X17988251Y-7155999D01*
X17990866Y-7195038D01*
X17992384Y-7252213D01*
X17993086Y-7331154D01*
X17993257Y-7435492D01*
X17993257Y-7752799D01*
X17917057Y-7767839D01*
X17907840Y-7769642D01*
X17858891Y-7778980D01*
X17791205Y-7791669D01*
X17712478Y-7806273D01*
X17630400Y-7821355D01*
X17598078Y-7827422D01*
X17525855Y-7842181D01*
X17465666Y-7856137D01*
X17423040Y-7867952D01*
X17403510Y-7876287D01*
X17394660Y-7889905D01*
X17378548Y-7925938D01*
X17362065Y-7972572D01*
X17356263Y-7990034D01*
X17334906Y-8047358D01*
X17307359Y-8115201D01*
X17278107Y-8182355D01*
X17262463Y-8217430D01*
X17240174Y-8269822D01*
X17224857Y-8309058D01*
X17219162Y-8328563D01*
X17219478Y-8330036D01*
X17230281Y-8350729D01*
X17254638Y-8390665D01*
X17290081Y-8445972D01*
X17334136Y-8512781D01*
X17384332Y-8587220D01*
X17549501Y-8829623D01*
X17332503Y-9046983D01*
X17311516Y-9067899D01*
X17247342Y-9130505D01*
X17189990Y-9184495D01*
X17142820Y-9226826D01*
X17109192Y-9254457D01*
X17092467Y-9264343D01*
X17074303Y-9256821D01*
X17036265Y-9235227D01*
X16982726Y-9202151D01*
X16917884Y-9160191D01*
X16845940Y-9111943D01*
X16775275Y-9064291D01*
X16711526Y-9022328D01*
X16659513Y-8989165D01*
X16623279Y-8967378D01*
X16606867Y-8959543D01*
X16605905Y-8959614D01*
X16584103Y-8967338D01*
X16545440Y-8985323D01*
X16497612Y-9010013D01*
X16497110Y-9010284D01*
X16433587Y-9042099D01*
X16390060Y-9057642D01*
X16363052Y-9057685D01*
X16349090Y-9043000D01*
X16343180Y-9028544D01*
X16327229Y-8989831D01*
X16302660Y-8930316D01*
X16270779Y-8853165D01*
X16232893Y-8761541D01*
X16190310Y-8658607D01*
X16144337Y-8547526D01*
X16102667Y-8446472D01*
X16060268Y-8342780D01*
X16022756Y-8250119D01*
X15991388Y-8171642D01*
X15967425Y-8110500D01*
X15952123Y-8069843D01*
X15946743Y-8052825D01*
X15957018Y-8037219D01*
X15985563Y-8011162D01*
X16025971Y-7980887D01*
X16122979Y-7901684D01*
X16209793Y-7800475D01*
X16273322Y-7689116D01*
X16313177Y-7570893D01*
X16328965Y-7449095D01*
X16320296Y-7327010D01*
X16286778Y-7207925D01*
X16228021Y-7095129D01*
X16143632Y-6991911D01*
X16099631Y-6951713D01*
X15994211Y-6880638D01*
X15881410Y-6834301D01*
X15764525Y-6811599D01*
X15646853Y-6811428D01*
X15531690Y-6832687D01*
X15422335Y-6874270D01*
X15322083Y-6935076D01*
X15234233Y-7014001D01*
X15162080Y-7109941D01*
X15108922Y-7221795D01*
X15078057Y-7348457D01*
X15072392Y-7409507D01*
X15080185Y-7541776D01*
X15115284Y-7667266D01*
X15176649Y-7783759D01*
X15263243Y-7889039D01*
X15374029Y-7980887D01*
X15412931Y-8009930D01*
X15442104Y-8036272D01*
X15453257Y-8052800D01*
X15448810Y-8067209D01*
X15434378Y-8105815D01*
X15411173Y-8165201D01*
X15380452Y-8242215D01*
X15343474Y-8333703D01*
X15301496Y-8436516D01*
X15255778Y-8547502D01*
X15214178Y-8648072D01*
X15171222Y-8751947D01*
X15132829Y-8844819D01*
X15100305Y-8923525D01*
X15074958Y-8984899D01*
X15058095Y-9025779D01*
X15051025Y-9043000D01*
X15050943Y-9043204D01*
X15036798Y-9057745D01*
X15009659Y-9057579D01*
X14966023Y-9041927D01*
X14902388Y-9010013D01*
X14897379Y-9007326D01*
X14850125Y-8983150D01*
X14812811Y-8966037D01*
X14793133Y-8959543D01*
X14777005Y-8967218D01*
X14740959Y-8988871D01*
X14689092Y-9021928D01*
X14625445Y-9063810D01*
X14554060Y-9111943D01*
X14483724Y-9159131D01*
X14418670Y-9201267D01*
X14364820Y-9234578D01*
X14326374Y-9256469D01*
X14307534Y-9264343D01*
X14304325Y-9263343D01*
X14281954Y-9247584D01*
X14243733Y-9215033D01*
X14193021Y-9168733D01*
X14133181Y-9111726D01*
X14067571Y-9047058D01*
X13850648Y-8829772D01*
X14019601Y-8581253D01*
X14188553Y-8332733D01*
X14137183Y-8221595D01*
X14137031Y-8221266D01*
X14106183Y-8150418D01*
X14074661Y-8071523D01*
X14049266Y-8001600D01*
X14045423Y-7990322D01*
X14026047Y-7937967D01*
X14008574Y-7897283D01*
X13996388Y-7876287D01*
X13991426Y-7873322D01*
X13961634Y-7863375D01*
X13911047Y-7850505D01*
X13845194Y-7836053D01*
X13769600Y-7821355D01*
X13746957Y-7817210D01*
X13665038Y-7802116D01*
X13588600Y-7787899D01*
X13525337Y-7775995D01*
X13482943Y-7767839D01*
X13406743Y-7752799D01*
X13406743Y-7435492D01*
X13406760Y-7396476D01*
X13407082Y-7301292D01*
X13408033Y-7230255D01*
X13409896Y-7179734D01*
X13412955Y-7146098D01*
X13417494Y-7125718D01*
X13423795Y-7114962D01*
X13432143Y-7110199D01*
X13440224Y-7108270D01*
X13473172Y-7101445D01*
X13525736Y-7091022D01*
X13592569Y-7078018D01*
X13668328Y-7063449D01*
X13747665Y-7048333D01*
X13825237Y-7033685D01*
X13895698Y-7020523D01*
X13953702Y-7009863D01*
X13993904Y-7002721D01*
X14010959Y-7000114D01*
X14012112Y-6998541D01*
X14021385Y-6978119D01*
X14037432Y-6939045D01*
X14057635Y-6887629D01*
X14085672Y-6818353D01*
X14120186Y-6738290D01*
X14152538Y-6667728D01*
X14159952Y-6651889D01*
X14180755Y-6602293D01*
X14193219Y-6564038D01*
X14194863Y-6544356D01*
X14194015Y-6542962D01*
X14180548Y-6522420D01*
X14153850Y-6482516D01*
X14116539Y-6427140D01*
X14071234Y-6360177D01*
X14020552Y-6285517D01*
X13963445Y-6200692D01*
X13920607Y-6134800D01*
X13891460Y-6086478D01*
X13874317Y-6052733D01*
X13867495Y-6030572D01*
X13869306Y-6017002D01*
X13869915Y-6015984D01*
X13886297Y-5996210D01*
X13919695Y-5960175D01*
X13966671Y-5911451D01*
X14023786Y-5853612D01*
X14087603Y-5790227D01*
X14153802Y-5725905D01*
X14218648Y-5665447D01*
X14266299Y-5624655D01*
X14297990Y-5602484D01*
X14314958Y-5597889D01*
X14317175Y-5598921D01*
X14340524Y-5612837D01*
X14382912Y-5640030D01*
X14440369Y-5677889D01*
X14508923Y-5723803D01*
X14584601Y-5775160D01*
X14831298Y-5943626D01*
X14942706Y-5893062D01*
X14945943Y-5891597D01*
X15014343Y-5861965D01*
X15086907Y-5832493D01*
X15148457Y-5809358D01*
X15148729Y-5809262D01*
X15197595Y-5791367D01*
X15235212Y-5776253D01*
X15253457Y-5767184D01*
X15253752Y-5766855D01*
X15259946Y-5748282D01*
X15270139Y-5706045D01*
X15283348Y-5644696D01*
X15298590Y-5568789D01*
X15314881Y-5482875D01*
X15315449Y-5479796D01*
X15331713Y-5392128D01*
X15346608Y-5312741D01*
X15359171Y-5246701D01*
X15368438Y-5199079D01*
X15373444Y-5174943D01*
X15373764Y-5173605D01*
X15377060Y-5163273D01*
X15383738Y-5155506D01*
X15397462Y-5149940D01*
X15421895Y-5146207D01*
X15460702Y-5143942D01*
X15517546Y-5142778D01*
X15596090Y-5142348D01*
X15700000Y-5142286D01*
X15713056Y-5142286D01*
X15813933Y-5142371D01*
G37*
X15813933Y-5142371D02*
X15889856Y-5142865D01*
X15944491Y-5144135D01*
X15981500Y-5146547D01*
X16004547Y-5150467D01*
X16017296Y-5156262D01*
X16023411Y-5164299D01*
X16026556Y-5174943D01*
X16026646Y-5175325D01*
X16031814Y-5200347D01*
X16041209Y-5248681D01*
X16053867Y-5315260D01*
X16068825Y-5395014D01*
X16085119Y-5482875D01*
X16086448Y-5490064D01*
X16102691Y-5575340D01*
X16117805Y-5650242D01*
X16130808Y-5710219D01*
X16140715Y-5750717D01*
X16146544Y-5767184D01*
X16146575Y-5767210D01*
X16164943Y-5776320D01*
X16202640Y-5791457D01*
X16251543Y-5809358D01*
X16254297Y-5810330D01*
X16316817Y-5833959D01*
X16389543Y-5863595D01*
X16457294Y-5893062D01*
X16568703Y-5943626D01*
X16815399Y-5775160D01*
X16832775Y-5763311D01*
X16907202Y-5712947D01*
X16973614Y-5668612D01*
X17028039Y-5632916D01*
X17066506Y-5608471D01*
X17085042Y-5597889D01*
X17097743Y-5600315D01*
X17126579Y-5619110D01*
X17171143Y-5656330D01*
X17232670Y-5713020D01*
X17312398Y-5790227D01*
X17319532Y-5797255D01*
X17382796Y-5860222D01*
X17438990Y-5917268D01*
X17484677Y-5964817D01*
X17516414Y-5999297D01*
X17530764Y-6017131D01*
X17530810Y-6017217D01*
X17532633Y-6030795D01*
X17525910Y-6052820D01*
X17508946Y-6086304D01*
X17480044Y-6134261D01*
X17437508Y-6199704D01*
X17379644Y-6285645D01*
X17369783Y-6300151D01*
X17319913Y-6373635D01*
X17275905Y-6438687D01*
X17240380Y-6491417D01*
X17215959Y-6527936D01*
X17205264Y-6544356D01*
X17204458Y-6547834D01*
X17209518Y-6573785D01*
X17224677Y-6616159D01*
X17247463Y-6667728D01*
X17278429Y-6735170D01*
X17313004Y-6815195D01*
X17342366Y-6887629D01*
X17349645Y-6906377D01*
X17368710Y-6954246D01*
X17382715Y-6987596D01*
X17389041Y-7000114D01*
X17396025Y-7001050D01*
X17427413Y-7006461D01*
X17478787Y-7015806D01*
X17544802Y-7028069D01*
X17620113Y-7042232D01*
X17699375Y-7057280D01*
X17777243Y-7072195D01*
X17848370Y-7085961D01*
X17907412Y-7097562D01*
X17949022Y-7105980D01*
X17967857Y-7110199D01*
X17970980Y-7111389D01*
X17978591Y-7117805D01*
X17984254Y-7131465D01*
X17988251Y-7155999D01*
X17990866Y-7195038D01*
X17992384Y-7252213D01*
X17993086Y-7331154D01*
X17993257Y-7435492D01*
X17993257Y-7752799D01*
X17917057Y-7767839D01*
X17907840Y-7769642D01*
X17858891Y-7778980D01*
X17791205Y-7791669D01*
X17712478Y-7806273D01*
X17630400Y-7821355D01*
X17598078Y-7827422D01*
X17525855Y-7842181D01*
X17465666Y-7856137D01*
X17423040Y-7867952D01*
X17403510Y-7876287D01*
X17394660Y-7889905D01*
X17378548Y-7925938D01*
X17362065Y-7972572D01*
X17356263Y-7990034D01*
X17334906Y-8047358D01*
X17307359Y-8115201D01*
X17278107Y-8182355D01*
X17262463Y-8217430D01*
X17240174Y-8269822D01*
X17224857Y-8309058D01*
X17219162Y-8328563D01*
X17219478Y-8330036D01*
X17230281Y-8350729D01*
X17254638Y-8390665D01*
X17290081Y-8445972D01*
X17334136Y-8512781D01*
X17384332Y-8587220D01*
X17549501Y-8829623D01*
X17332503Y-9046983D01*
X17311516Y-9067899D01*
X17247342Y-9130505D01*
X17189990Y-9184495D01*
X17142820Y-9226826D01*
X17109192Y-9254457D01*
X17092467Y-9264343D01*
X17074303Y-9256821D01*
X17036265Y-9235227D01*
X16982726Y-9202151D01*
X16917884Y-9160191D01*
X16845940Y-9111943D01*
X16775275Y-9064291D01*
X16711526Y-9022328D01*
X16659513Y-8989165D01*
X16623279Y-8967378D01*
X16606867Y-8959543D01*
X16605905Y-8959614D01*
X16584103Y-8967338D01*
X16545440Y-8985323D01*
X16497612Y-9010013D01*
X16497110Y-9010284D01*
X16433587Y-9042099D01*
X16390060Y-9057642D01*
X16363052Y-9057685D01*
X16349090Y-9043000D01*
X16343180Y-9028544D01*
X16327229Y-8989831D01*
X16302660Y-8930316D01*
X16270779Y-8853165D01*
X16232893Y-8761541D01*
X16190310Y-8658607D01*
X16144337Y-8547526D01*
X16102667Y-8446472D01*
X16060268Y-8342780D01*
X16022756Y-8250119D01*
X15991388Y-8171642D01*
X15967425Y-8110500D01*
X15952123Y-8069843D01*
X15946743Y-8052825D01*
X15957018Y-8037219D01*
X15985563Y-8011162D01*
X16025971Y-7980887D01*
X16122979Y-7901684D01*
X16209793Y-7800475D01*
X16273322Y-7689116D01*
X16313177Y-7570893D01*
X16328965Y-7449095D01*
X16320296Y-7327010D01*
X16286778Y-7207925D01*
X16228021Y-7095129D01*
X16143632Y-6991911D01*
X16099631Y-6951713D01*
X15994211Y-6880638D01*
X15881410Y-6834301D01*
X15764525Y-6811599D01*
X15646853Y-6811428D01*
X15531690Y-6832687D01*
X15422335Y-6874270D01*
X15322083Y-6935076D01*
X15234233Y-7014001D01*
X15162080Y-7109941D01*
X15108922Y-7221795D01*
X15078057Y-7348457D01*
X15072392Y-7409507D01*
X15080185Y-7541776D01*
X15115284Y-7667266D01*
X15176649Y-7783759D01*
X15263243Y-7889039D01*
X15374029Y-7980887D01*
X15412931Y-8009930D01*
X15442104Y-8036272D01*
X15453257Y-8052800D01*
X15448810Y-8067209D01*
X15434378Y-8105815D01*
X15411173Y-8165201D01*
X15380452Y-8242215D01*
X15343474Y-8333703D01*
X15301496Y-8436516D01*
X15255778Y-8547502D01*
X15214178Y-8648072D01*
X15171222Y-8751947D01*
X15132829Y-8844819D01*
X15100305Y-8923525D01*
X15074958Y-8984899D01*
X15058095Y-9025779D01*
X15051025Y-9043000D01*
X15050943Y-9043204D01*
X15036798Y-9057745D01*
X15009659Y-9057579D01*
X14966023Y-9041927D01*
X14902388Y-9010013D01*
X14897379Y-9007326D01*
X14850125Y-8983150D01*
X14812811Y-8966037D01*
X14793133Y-8959543D01*
X14777005Y-8967218D01*
X14740959Y-8988871D01*
X14689092Y-9021928D01*
X14625445Y-9063810D01*
X14554060Y-9111943D01*
X14483724Y-9159131D01*
X14418670Y-9201267D01*
X14364820Y-9234578D01*
X14326374Y-9256469D01*
X14307534Y-9264343D01*
X14304325Y-9263343D01*
X14281954Y-9247584D01*
X14243733Y-9215033D01*
X14193021Y-9168733D01*
X14133181Y-9111726D01*
X14067571Y-9047058D01*
X13850648Y-8829772D01*
X14019601Y-8581253D01*
X14188553Y-8332733D01*
X14137183Y-8221595D01*
X14137031Y-8221266D01*
X14106183Y-8150418D01*
X14074661Y-8071523D01*
X14049266Y-8001600D01*
X14045423Y-7990322D01*
X14026047Y-7937967D01*
X14008574Y-7897283D01*
X13996388Y-7876287D01*
X13991426Y-7873322D01*
X13961634Y-7863375D01*
X13911047Y-7850505D01*
X13845194Y-7836053D01*
X13769600Y-7821355D01*
X13746957Y-7817210D01*
X13665038Y-7802116D01*
X13588600Y-7787899D01*
X13525337Y-7775995D01*
X13482943Y-7767839D01*
X13406743Y-7752799D01*
X13406743Y-7435492D01*
X13406760Y-7396476D01*
X13407082Y-7301292D01*
X13408033Y-7230255D01*
X13409896Y-7179734D01*
X13412955Y-7146098D01*
X13417494Y-7125718D01*
X13423795Y-7114962D01*
X13432143Y-7110199D01*
X13440224Y-7108270D01*
X13473172Y-7101445D01*
X13525736Y-7091022D01*
X13592569Y-7078018D01*
X13668328Y-7063449D01*
X13747665Y-7048333D01*
X13825237Y-7033685D01*
X13895698Y-7020523D01*
X13953702Y-7009863D01*
X13993904Y-7002721D01*
X14010959Y-7000114D01*
X14012112Y-6998541D01*
X14021385Y-6978119D01*
X14037432Y-6939045D01*
X14057635Y-6887629D01*
X14085672Y-6818353D01*
X14120186Y-6738290D01*
X14152538Y-6667728D01*
X14159952Y-6651889D01*
X14180755Y-6602293D01*
X14193219Y-6564038D01*
X14194863Y-6544356D01*
X14194015Y-6542962D01*
X14180548Y-6522420D01*
X14153850Y-6482516D01*
X14116539Y-6427140D01*
X14071234Y-6360177D01*
X14020552Y-6285517D01*
X13963445Y-6200692D01*
X13920607Y-6134800D01*
X13891460Y-6086478D01*
X13874317Y-6052733D01*
X13867495Y-6030572D01*
X13869306Y-6017002D01*
X13869915Y-6015984D01*
X13886297Y-5996210D01*
X13919695Y-5960175D01*
X13966671Y-5911451D01*
X14023786Y-5853612D01*
X14087603Y-5790227D01*
X14153802Y-5725905D01*
X14218648Y-5665447D01*
X14266299Y-5624655D01*
X14297990Y-5602484D01*
X14314958Y-5597889D01*
X14317175Y-5598921D01*
X14340524Y-5612837D01*
X14382912Y-5640030D01*
X14440369Y-5677889D01*
X14508923Y-5723803D01*
X14584601Y-5775160D01*
X14831298Y-5943626D01*
X14942706Y-5893062D01*
X14945943Y-5891597D01*
X15014343Y-5861965D01*
X15086907Y-5832493D01*
X15148457Y-5809358D01*
X15148729Y-5809262D01*
X15197595Y-5791367D01*
X15235212Y-5776253D01*
X15253457Y-5767184D01*
X15253752Y-5766855D01*
X15259946Y-5748282D01*
X15270139Y-5706045D01*
X15283348Y-5644696D01*
X15298590Y-5568789D01*
X15314881Y-5482875D01*
X15315449Y-5479796D01*
X15331713Y-5392128D01*
X15346608Y-5312741D01*
X15359171Y-5246701D01*
X15368438Y-5199079D01*
X15373444Y-5174943D01*
X15373764Y-5173605D01*
X15377060Y-5163273D01*
X15383738Y-5155506D01*
X15397462Y-5149940D01*
X15421895Y-5146207D01*
X15460702Y-5143942D01*
X15517546Y-5142778D01*
X15596090Y-5142348D01*
X15700000Y-5142286D01*
X15713056Y-5142286D01*
X15813933Y-5142371D01*
G36*
X18965701Y-10150935D02*
G01*
X18964914Y-10221119D01*
X18962210Y-10270022D01*
X18956606Y-10304178D01*
X18947119Y-10330124D01*
X18932768Y-10354397D01*
X18929237Y-10359433D01*
X18891878Y-10399143D01*
X18849311Y-10429092D01*
X18827452Y-10438810D01*
X18748908Y-10455020D01*
X18671231Y-10444535D01*
X18599645Y-10408707D01*
X18539374Y-10348887D01*
X18534286Y-10340873D01*
X18517730Y-10294342D01*
X18506573Y-10229552D01*
X18501160Y-10154727D01*
X18501768Y-10085513D01*
X18648248Y-10085513D01*
X18649402Y-10181399D01*
X18649866Y-10187569D01*
X18656629Y-10240478D01*
X18668671Y-10274029D01*
X18689005Y-10297016D01*
X18723097Y-10318548D01*
X18756814Y-10319680D01*
X18791543Y-10294857D01*
X18797584Y-10288325D01*
X18809417Y-10268779D01*
X18816404Y-10240386D01*
X18819727Y-10196430D01*
X18820571Y-10130192D01*
X18819125Y-10068150D01*
X18811907Y-10009042D01*
X18797006Y-9971686D01*
X18772636Y-9952152D01*
X18737008Y-9946514D01*
X18723440Y-9947635D01*
X18685430Y-9968194D01*
X18660312Y-10014299D01*
X18648248Y-10085513D01*
X18501768Y-10085513D01*
X18501833Y-10078096D01*
X18508937Y-10007882D01*
X18522815Y-9952312D01*
X18540649Y-9915301D01*
X18590855Y-9857733D01*
X18658885Y-9821962D01*
X18742158Y-9809665D01*
X18764398Y-9810331D01*
X18829891Y-9823947D01*
X18883687Y-9858249D01*
X18933057Y-9917338D01*
X18935995Y-9921722D01*
X18949287Y-9945299D01*
X18957932Y-9971949D01*
X18962904Y-10008159D01*
X18965174Y-10060413D01*
X18965678Y-10130192D01*
X18965714Y-10135200D01*
X18965701Y-10150935D01*
G37*
X18965701Y-10150935D02*
X18964914Y-10221119D01*
X18962210Y-10270022D01*
X18956606Y-10304178D01*
X18947119Y-10330124D01*
X18932768Y-10354397D01*
X18929237Y-10359433D01*
X18891878Y-10399143D01*
X18849311Y-10429092D01*
X18827452Y-10438810D01*
X18748908Y-10455020D01*
X18671231Y-10444535D01*
X18599645Y-10408707D01*
X18539374Y-10348887D01*
X18534286Y-10340873D01*
X18517730Y-10294342D01*
X18506573Y-10229552D01*
X18501160Y-10154727D01*
X18501768Y-10085513D01*
X18648248Y-10085513D01*
X18649402Y-10181399D01*
X18649866Y-10187569D01*
X18656629Y-10240478D01*
X18668671Y-10274029D01*
X18689005Y-10297016D01*
X18723097Y-10318548D01*
X18756814Y-10319680D01*
X18791543Y-10294857D01*
X18797584Y-10288325D01*
X18809417Y-10268779D01*
X18816404Y-10240386D01*
X18819727Y-10196430D01*
X18820571Y-10130192D01*
X18819125Y-10068150D01*
X18811907Y-10009042D01*
X18797006Y-9971686D01*
X18772636Y-9952152D01*
X18737008Y-9946514D01*
X18723440Y-9947635D01*
X18685430Y-9968194D01*
X18660312Y-10014299D01*
X18648248Y-10085513D01*
X18501768Y-10085513D01*
X18501833Y-10078096D01*
X18508937Y-10007882D01*
X18522815Y-9952312D01*
X18540649Y-9915301D01*
X18590855Y-9857733D01*
X18658885Y-9821962D01*
X18742158Y-9809665D01*
X18764398Y-9810331D01*
X18829891Y-9823947D01*
X18883687Y-9858249D01*
X18933057Y-9917338D01*
X18935995Y-9921722D01*
X18949287Y-9945299D01*
X18957932Y-9971949D01*
X18962904Y-10008159D01*
X18965174Y-10060413D01*
X18965678Y-10130192D01*
X18965714Y-10135200D01*
X18965701Y-10150935D01*
G36*
X14929537Y-10206313D02*
G01*
X14921345Y-10283462D01*
X14903519Y-10341276D01*
X14873975Y-10385422D01*
X14830625Y-10421568D01*
X14789332Y-10442463D01*
X14719987Y-10454090D01*
X14650736Y-10441377D01*
X14588145Y-10405945D01*
X14538779Y-10349418D01*
X14532818Y-10338995D01*
X14524945Y-10320733D01*
X14519106Y-10297429D01*
X14514999Y-10265085D01*
X14512325Y-10219704D01*
X14510781Y-10157287D01*
X14510734Y-10151748D01*
X14611429Y-10151748D01*
X14611772Y-10204577D01*
X14613942Y-10252362D01*
X14619307Y-10283209D01*
X14629217Y-10303935D01*
X14645021Y-10321356D01*
X14648724Y-10324705D01*
X14696299Y-10349419D01*
X14746635Y-10346890D01*
X14793517Y-10317288D01*
X14807477Y-10301953D01*
X14819160Y-10281622D01*
X14825686Y-10253514D01*
X14828524Y-10210550D01*
X14829143Y-10145647D01*
X14828837Y-10096122D01*
X14826722Y-10047782D01*
X14821390Y-10016587D01*
X14811460Y-9995647D01*
X14795550Y-9978073D01*
X14786204Y-9970159D01*
X14737776Y-9948843D01*
X14687040Y-9952198D01*
X14642987Y-9980107D01*
X14633504Y-9991173D01*
X14621939Y-10012009D01*
X14615252Y-10041106D01*
X14612173Y-10085381D01*
X14611429Y-10151748D01*
X14510734Y-10151748D01*
X14510067Y-10073837D01*
X14509883Y-9965358D01*
X14509829Y-9628601D01*
X14557000Y-9648362D01*
X14569472Y-9653770D01*
X14589324Y-9665985D01*
X14600687Y-9684482D01*
X14606933Y-9716829D01*
X14611429Y-9770593D01*
X14615535Y-9818866D01*
X14620963Y-9850557D01*
X14628739Y-9862383D01*
X14640457Y-9859212D01*
X14670318Y-9848067D01*
X14723684Y-9845304D01*
X14781093Y-9855625D01*
X14830625Y-9877861D01*
X14857876Y-9898443D01*
X14892865Y-9938600D01*
X14915274Y-9990086D01*
X14927190Y-10058568D01*
X14930542Y-10145647D01*
X14930698Y-10149714D01*
X14929537Y-10206313D01*
G37*
X14929537Y-10206313D02*
X14921345Y-10283462D01*
X14903519Y-10341276D01*
X14873975Y-10385422D01*
X14830625Y-10421568D01*
X14789332Y-10442463D01*
X14719987Y-10454090D01*
X14650736Y-10441377D01*
X14588145Y-10405945D01*
X14538779Y-10349418D01*
X14532818Y-10338995D01*
X14524945Y-10320733D01*
X14519106Y-10297429D01*
X14514999Y-10265085D01*
X14512325Y-10219704D01*
X14510781Y-10157287D01*
X14510734Y-10151748D01*
X14611429Y-10151748D01*
X14611772Y-10204577D01*
X14613942Y-10252362D01*
X14619307Y-10283209D01*
X14629217Y-10303935D01*
X14645021Y-10321356D01*
X14648724Y-10324705D01*
X14696299Y-10349419D01*
X14746635Y-10346890D01*
X14793517Y-10317288D01*
X14807477Y-10301953D01*
X14819160Y-10281622D01*
X14825686Y-10253514D01*
X14828524Y-10210550D01*
X14829143Y-10145647D01*
X14828837Y-10096122D01*
X14826722Y-10047782D01*
X14821390Y-10016587D01*
X14811460Y-9995647D01*
X14795550Y-9978073D01*
X14786204Y-9970159D01*
X14737776Y-9948843D01*
X14687040Y-9952198D01*
X14642987Y-9980107D01*
X14633504Y-9991173D01*
X14621939Y-10012009D01*
X14615252Y-10041106D01*
X14612173Y-10085381D01*
X14611429Y-10151748D01*
X14510734Y-10151748D01*
X14510067Y-10073837D01*
X14509883Y-9965358D01*
X14509829Y-9628601D01*
X14557000Y-9648362D01*
X14569472Y-9653770D01*
X14589324Y-9665985D01*
X14600687Y-9684482D01*
X14606933Y-9716829D01*
X14611429Y-9770593D01*
X14615535Y-9818866D01*
X14620963Y-9850557D01*
X14628739Y-9862383D01*
X14640457Y-9859212D01*
X14670318Y-9848067D01*
X14723684Y-9845304D01*
X14781093Y-9855625D01*
X14830625Y-9877861D01*
X14857876Y-9898443D01*
X14892865Y-9938600D01*
X14915274Y-9990086D01*
X14927190Y-10058568D01*
X14930542Y-10145647D01*
X14930698Y-10149714D01*
X14929537Y-10206313D01*
G36*
X16378543Y-9649444D02*
G01*
X16425714Y-9669342D01*
X16425714Y-10066509D01*
X16425519Y-10169498D01*
X16424998Y-10262141D01*
X16424199Y-10340700D01*
X16423172Y-10401439D01*
X16421963Y-10440623D01*
X16420623Y-10454514D01*
X16420099Y-10454468D01*
X16402287Y-10449420D01*
X16369823Y-10438580D01*
X16324114Y-10422646D01*
X16324114Y-10218173D01*
X16323824Y-10137832D01*
X16322474Y-10079562D01*
X16319369Y-10039909D01*
X16313812Y-10013618D01*
X16305107Y-9995436D01*
X16292556Y-9980107D01*
X16283999Y-9971955D01*
X16237728Y-9949375D01*
X16186728Y-9951375D01*
X16139993Y-9978073D01*
X16133189Y-9984698D01*
X16122293Y-9998456D01*
X16114836Y-10016642D01*
X16110169Y-10044177D01*
X16107642Y-10085981D01*
X16106602Y-10146973D01*
X16106400Y-10232073D01*
X16106303Y-10275234D01*
X16105674Y-10346224D01*
X16104556Y-10403076D01*
X16103063Y-10440828D01*
X16101309Y-10454514D01*
X16100785Y-10454468D01*
X16082973Y-10449420D01*
X16050509Y-10438580D01*
X16004800Y-10422646D01*
X16004823Y-10217237D01*
X16004857Y-10198951D01*
X16006778Y-10103626D01*
X16012678Y-10031543D01*
X16024001Y-9977813D01*
X16042187Y-9937549D01*
X16068679Y-9905861D01*
X16104918Y-9877861D01*
X16140263Y-9860333D01*
X16196773Y-9846785D01*
X16252356Y-9846015D01*
X16295086Y-9859195D01*
X16298298Y-9861015D01*
X16308205Y-9860820D01*
X16314975Y-9845572D01*
X16319861Y-9810613D01*
X16324114Y-9751289D01*
X16331371Y-9629547D01*
X16378543Y-9649444D01*
G37*
X16378543Y-9649444D02*
X16425714Y-9669342D01*
X16425714Y-10066509D01*
X16425519Y-10169498D01*
X16424998Y-10262141D01*
X16424199Y-10340700D01*
X16423172Y-10401439D01*
X16421963Y-10440623D01*
X16420623Y-10454514D01*
X16420099Y-10454468D01*
X16402287Y-10449420D01*
X16369823Y-10438580D01*
X16324114Y-10422646D01*
X16324114Y-10218173D01*
X16323824Y-10137832D01*
X16322474Y-10079562D01*
X16319369Y-10039909D01*
X16313812Y-10013618D01*
X16305107Y-9995436D01*
X16292556Y-9980107D01*
X16283999Y-9971955D01*
X16237728Y-9949375D01*
X16186728Y-9951375D01*
X16139993Y-9978073D01*
X16133189Y-9984698D01*
X16122293Y-9998456D01*
X16114836Y-10016642D01*
X16110169Y-10044177D01*
X16107642Y-10085981D01*
X16106602Y-10146973D01*
X16106400Y-10232073D01*
X16106303Y-10275234D01*
X16105674Y-10346224D01*
X16104556Y-10403076D01*
X16103063Y-10440828D01*
X16101309Y-10454514D01*
X16100785Y-10454468D01*
X16082973Y-10449420D01*
X16050509Y-10438580D01*
X16004800Y-10422646D01*
X16004823Y-10217237D01*
X16004857Y-10198951D01*
X16006778Y-10103626D01*
X16012678Y-10031543D01*
X16024001Y-9977813D01*
X16042187Y-9937549D01*
X16068679Y-9905861D01*
X16104918Y-9877861D01*
X16140263Y-9860333D01*
X16196773Y-9846785D01*
X16252356Y-9846015D01*
X16295086Y-9859195D01*
X16298298Y-9861015D01*
X16308205Y-9860820D01*
X16314975Y-9845572D01*
X16319861Y-9810613D01*
X16324114Y-9751289D01*
X16331371Y-9629547D01*
X16378543Y-9649444D01*
G36*
X18411252Y-10313000D02*
G01*
X18411651Y-10345339D01*
X18412929Y-10453455D01*
X18413185Y-10536186D01*
X18411634Y-10596426D01*
X18407490Y-10637073D01*
X18399964Y-10661023D01*
X18388271Y-10671171D01*
X18371624Y-10670414D01*
X18349236Y-10661648D01*
X18320321Y-10647769D01*
X18314142Y-10644808D01*
X18288413Y-10630311D01*
X18274976Y-10613065D01*
X18269834Y-10584308D01*
X18268990Y-10535283D01*
X18268952Y-10447257D01*
X18178276Y-10447257D01*
X18122498Y-10444815D01*
X18078640Y-10434908D01*
X18042218Y-10414886D01*
X18039503Y-10412929D01*
X18002546Y-10379869D01*
X17976826Y-10339931D01*
X17960606Y-10287657D01*
X17952148Y-10217588D01*
X17950083Y-10138430D01*
X18094857Y-10138430D01*
X18094882Y-10151697D01*
X18096261Y-10211584D01*
X18100687Y-10250732D01*
X18109461Y-10276153D01*
X18123886Y-10294857D01*
X18124784Y-10295750D01*
X18160237Y-10319952D01*
X18194596Y-10317567D01*
X18233403Y-10288260D01*
X18242895Y-10278244D01*
X18256876Y-10257708D01*
X18264760Y-10230997D01*
X18268245Y-10190499D01*
X18269029Y-10128603D01*
X18268350Y-10091130D01*
X18260983Y-10022980D01*
X18244168Y-9978330D01*
X18216234Y-9953926D01*
X18175509Y-9946514D01*
X18158350Y-9948094D01*
X18128660Y-9963766D01*
X18109031Y-9998691D01*
X18098188Y-10055901D01*
X18094857Y-10138430D01*
X17950083Y-10138430D01*
X17949714Y-10124267D01*
X17950253Y-10056169D01*
X17952707Y-10004587D01*
X17958158Y-9968816D01*
X17967686Y-9942015D01*
X17982371Y-9917338D01*
X17995852Y-9898480D01*
X18044799Y-9847568D01*
X18100256Y-9819918D01*
X18169928Y-9811165D01*
X18249664Y-9819890D01*
X18318595Y-9851185D01*
X18373113Y-9906381D01*
X18377223Y-9912224D01*
X18386808Y-9927753D01*
X18394151Y-9945498D01*
X18399612Y-9969290D01*
X18403550Y-10002958D01*
X18406323Y-10050333D01*
X18408292Y-10115245D01*
X18408528Y-10128603D01*
X18409815Y-10201524D01*
X18411252Y-10313000D01*
G37*
X18411252Y-10313000D02*
X18411651Y-10345339D01*
X18412929Y-10453455D01*
X18413185Y-10536186D01*
X18411634Y-10596426D01*
X18407490Y-10637073D01*
X18399964Y-10661023D01*
X18388271Y-10671171D01*
X18371624Y-10670414D01*
X18349236Y-10661648D01*
X18320321Y-10647769D01*
X18314142Y-10644808D01*
X18288413Y-10630311D01*
X18274976Y-10613065D01*
X18269834Y-10584308D01*
X18268990Y-10535283D01*
X18268952Y-10447257D01*
X18178276Y-10447257D01*
X18122498Y-10444815D01*
X18078640Y-10434908D01*
X18042218Y-10414886D01*
X18039503Y-10412929D01*
X18002546Y-10379869D01*
X17976826Y-10339931D01*
X17960606Y-10287657D01*
X17952148Y-10217588D01*
X17950083Y-10138430D01*
X18094857Y-10138430D01*
X18094882Y-10151697D01*
X18096261Y-10211584D01*
X18100687Y-10250732D01*
X18109461Y-10276153D01*
X18123886Y-10294857D01*
X18124784Y-10295750D01*
X18160237Y-10319952D01*
X18194596Y-10317567D01*
X18233403Y-10288260D01*
X18242895Y-10278244D01*
X18256876Y-10257708D01*
X18264760Y-10230997D01*
X18268245Y-10190499D01*
X18269029Y-10128603D01*
X18268350Y-10091130D01*
X18260983Y-10022980D01*
X18244168Y-9978330D01*
X18216234Y-9953926D01*
X18175509Y-9946514D01*
X18158350Y-9948094D01*
X18128660Y-9963766D01*
X18109031Y-9998691D01*
X18098188Y-10055901D01*
X18094857Y-10138430D01*
X17950083Y-10138430D01*
X17949714Y-10124267D01*
X17950253Y-10056169D01*
X17952707Y-10004587D01*
X17958158Y-9968816D01*
X17967686Y-9942015D01*
X17982371Y-9917338D01*
X17995852Y-9898480D01*
X18044799Y-9847568D01*
X18100256Y-9819918D01*
X18169928Y-9811165D01*
X18249664Y-9819890D01*
X18318595Y-9851185D01*
X18373113Y-9906381D01*
X18377223Y-9912224D01*
X18386808Y-9927753D01*
X18394151Y-9945498D01*
X18399612Y-9969290D01*
X18403550Y-10002958D01*
X18406323Y-10050333D01*
X18408292Y-10115245D01*
X18408528Y-10128603D01*
X18409815Y-10201524D01*
X18411252Y-10313000D01*
G36*
X17857684Y-10204078D02*
G01*
X17855078Y-10227387D01*
X17835660Y-10310352D01*
X17800573Y-10373448D01*
X17747212Y-10421808D01*
X17744196Y-10423804D01*
X17676362Y-10452185D01*
X17605535Y-10454711D01*
X17537289Y-10433097D01*
X17477196Y-10389062D01*
X17430829Y-10324322D01*
X17430050Y-10322761D01*
X17414643Y-10282558D01*
X17403357Y-10236866D01*
X17397370Y-10193972D01*
X17397861Y-10162160D01*
X17406007Y-10149714D01*
X17413244Y-10150471D01*
X17447851Y-10164235D01*
X17487078Y-10189546D01*
X17520448Y-10218845D01*
X17537483Y-10244572D01*
X17555192Y-10279471D01*
X17591485Y-10311212D01*
X17633630Y-10323886D01*
X17649077Y-10320221D01*
X17679569Y-10301774D01*
X17706128Y-10276166D01*
X17717486Y-10252934D01*
X17717482Y-10252848D01*
X17704596Y-10242179D01*
X17670241Y-10222933D01*
X17619593Y-10197813D01*
X17557829Y-10169524D01*
X17557489Y-10169374D01*
X17490388Y-10139498D01*
X17445411Y-10117973D01*
X17418145Y-10101437D01*
X17404178Y-10086531D01*
X17399097Y-10069893D01*
X17398490Y-10048162D01*
X17402712Y-10007013D01*
X17546000Y-10007013D01*
X17560791Y-10019949D01*
X17597644Y-10039333D01*
X17598725Y-10039881D01*
X17642205Y-10060587D01*
X17681102Y-10077105D01*
X17705778Y-10084093D01*
X17715676Y-10074753D01*
X17717486Y-10042748D01*
X17709966Y-10002915D01*
X17683897Y-9966717D01*
X17646154Y-9947950D01*
X17604077Y-9949845D01*
X17565005Y-9975632D01*
X17549647Y-9993451D01*
X17546000Y-10007013D01*
X17402712Y-10007013D01*
X17403833Y-9996086D01*
X17430251Y-9925335D01*
X17474473Y-9869735D01*
X17531697Y-9831239D01*
X17597120Y-9811797D01*
X17665937Y-9813359D01*
X17733347Y-9837878D01*
X17794544Y-9887302D01*
X17828450Y-9936212D01*
X17852806Y-10006027D01*
X17856767Y-10042748D01*
X17862299Y-10094055D01*
X17857684Y-10204078D01*
G37*
X17857684Y-10204078D02*
X17855078Y-10227387D01*
X17835660Y-10310352D01*
X17800573Y-10373448D01*
X17747212Y-10421808D01*
X17744196Y-10423804D01*
X17676362Y-10452185D01*
X17605535Y-10454711D01*
X17537289Y-10433097D01*
X17477196Y-10389062D01*
X17430829Y-10324322D01*
X17430050Y-10322761D01*
X17414643Y-10282558D01*
X17403357Y-10236866D01*
X17397370Y-10193972D01*
X17397861Y-10162160D01*
X17406007Y-10149714D01*
X17413244Y-10150471D01*
X17447851Y-10164235D01*
X17487078Y-10189546D01*
X17520448Y-10218845D01*
X17537483Y-10244572D01*
X17555192Y-10279471D01*
X17591485Y-10311212D01*
X17633630Y-10323886D01*
X17649077Y-10320221D01*
X17679569Y-10301774D01*
X17706128Y-10276166D01*
X17717486Y-10252934D01*
X17717482Y-10252848D01*
X17704596Y-10242179D01*
X17670241Y-10222933D01*
X17619593Y-10197813D01*
X17557829Y-10169524D01*
X17557489Y-10169374D01*
X17490388Y-10139498D01*
X17445411Y-10117973D01*
X17418145Y-10101437D01*
X17404178Y-10086531D01*
X17399097Y-10069893D01*
X17398490Y-10048162D01*
X17402712Y-10007013D01*
X17546000Y-10007013D01*
X17560791Y-10019949D01*
X17597644Y-10039333D01*
X17598725Y-10039881D01*
X17642205Y-10060587D01*
X17681102Y-10077105D01*
X17705778Y-10084093D01*
X17715676Y-10074753D01*
X17717486Y-10042748D01*
X17709966Y-10002915D01*
X17683897Y-9966717D01*
X17646154Y-9947950D01*
X17604077Y-9949845D01*
X17565005Y-9975632D01*
X17549647Y-9993451D01*
X17546000Y-10007013D01*
X17402712Y-10007013D01*
X17403833Y-9996086D01*
X17430251Y-9925335D01*
X17474473Y-9869735D01*
X17531697Y-9831239D01*
X17597120Y-9811797D01*
X17665937Y-9813359D01*
X17733347Y-9837878D01*
X17794544Y-9887302D01*
X17828450Y-9936212D01*
X17852806Y-10006027D01*
X17856767Y-10042748D01*
X17862299Y-10094055D01*
X17857684Y-10204078D01*
G36*
X13182829Y-9851097D02*
G01*
X13242753Y-9873355D01*
X13267673Y-9890080D01*
X13292910Y-9914043D01*
X13310912Y-9944526D01*
X13322858Y-9986023D01*
X13329930Y-10043032D01*
X13333308Y-10120047D01*
X13334171Y-10221565D01*
X13334002Y-10274027D01*
X13333153Y-10345715D01*
X13331711Y-10402925D01*
X13329814Y-10440809D01*
X13327597Y-10454514D01*
X13313172Y-10449981D01*
X13284054Y-10437670D01*
X13283181Y-10437272D01*
X13268060Y-10429356D01*
X13257891Y-10418495D01*
X13251691Y-10399471D01*
X13248478Y-10367069D01*
X13247270Y-10316071D01*
X13247086Y-10241261D01*
X13246714Y-10193804D01*
X13242750Y-10104615D01*
X13233673Y-10039287D01*
X13218524Y-9994393D01*
X13196345Y-9966507D01*
X13166175Y-9952203D01*
X13161990Y-9951206D01*
X13105480Y-9950427D01*
X13061410Y-9975744D01*
X13030972Y-10026502D01*
X13025544Y-10041175D01*
X13013171Y-10073649D01*
X13006905Y-10088572D01*
X12994036Y-10086516D01*
X12965933Y-10075357D01*
X12939721Y-10056927D01*
X12927771Y-10022098D01*
X12931336Y-9997151D01*
X12953235Y-9946547D01*
X12988644Y-9899128D01*
X13030052Y-9866334D01*
X13047400Y-9858752D01*
X13113089Y-9846076D01*
X13182829Y-9851097D01*
G37*
X13182829Y-9851097D02*
X13242753Y-9873355D01*
X13267673Y-9890080D01*
X13292910Y-9914043D01*
X13310912Y-9944526D01*
X13322858Y-9986023D01*
X13329930Y-10043032D01*
X13333308Y-10120047D01*
X13334171Y-10221565D01*
X13334002Y-10274027D01*
X13333153Y-10345715D01*
X13331711Y-10402925D01*
X13329814Y-10440809D01*
X13327597Y-10454514D01*
X13313172Y-10449981D01*
X13284054Y-10437670D01*
X13283181Y-10437272D01*
X13268060Y-10429356D01*
X13257891Y-10418495D01*
X13251691Y-10399471D01*
X13248478Y-10367069D01*
X13247270Y-10316071D01*
X13247086Y-10241261D01*
X13246714Y-10193804D01*
X13242750Y-10104615D01*
X13233673Y-10039287D01*
X13218524Y-9994393D01*
X13196345Y-9966507D01*
X13166175Y-9952203D01*
X13161990Y-9951206D01*
X13105480Y-9950427D01*
X13061410Y-9975744D01*
X13030972Y-10026502D01*
X13025544Y-10041175D01*
X13013171Y-10073649D01*
X13006905Y-10088572D01*
X12994036Y-10086516D01*
X12965933Y-10075357D01*
X12939721Y-10056927D01*
X12927771Y-10022098D01*
X12931336Y-9997151D01*
X12953235Y-9946547D01*
X12988644Y-9899128D01*
X13030052Y-9866334D01*
X13047400Y-9858752D01*
X13113089Y-9846076D01*
X13182829Y-9851097D01*
G36*
X17131020Y-9817822D02*
G01*
X17198810Y-9849680D01*
X17254366Y-9904770D01*
X17265881Y-9922016D01*
X17275432Y-9941562D01*
X17282206Y-9966198D01*
X17286819Y-10000711D01*
X17289888Y-10049889D01*
X17292029Y-10118519D01*
X17293859Y-10211389D01*
X17298404Y-10469007D01*
X17260225Y-10454491D01*
X17225268Y-10441156D01*
X17199097Y-10428323D01*
X17182013Y-10411780D01*
X17172086Y-10386465D01*
X17167386Y-10347316D01*
X17165982Y-10289268D01*
X17165943Y-10207261D01*
X17165744Y-10141895D01*
X17164559Y-10079173D01*
X17161729Y-10036334D01*
X17156609Y-10008220D01*
X17148553Y-9989675D01*
X17136914Y-9975543D01*
X17108303Y-9955600D01*
X17060239Y-9948083D01*
X17012688Y-9967079D01*
X17009550Y-9969511D01*
X16999769Y-9980748D01*
X16992553Y-9998770D01*
X16987299Y-10028026D01*
X16983402Y-10072962D01*
X16980256Y-10138028D01*
X16977257Y-10227670D01*
X16970000Y-10467697D01*
X16908314Y-10440044D01*
X16846629Y-10412391D01*
X16846629Y-10193246D01*
X16846884Y-10133711D01*
X16849086Y-10050892D01*
X16854661Y-9989227D01*
X16864941Y-9943748D01*
X16881258Y-9909484D01*
X16904943Y-9881466D01*
X16937328Y-9854723D01*
X16983907Y-9827780D01*
X17057287Y-9810191D01*
X17131020Y-9817822D01*
G37*
X17131020Y-9817822D02*
X17198810Y-9849680D01*
X17254366Y-9904770D01*
X17265881Y-9922016D01*
X17275432Y-9941562D01*
X17282206Y-9966198D01*
X17286819Y-10000711D01*
X17289888Y-10049889D01*
X17292029Y-10118519D01*
X17293859Y-10211389D01*
X17298404Y-10469007D01*
X17260225Y-10454491D01*
X17225268Y-10441156D01*
X17199097Y-10428323D01*
X17182013Y-10411780D01*
X17172086Y-10386465D01*
X17167386Y-10347316D01*
X17165982Y-10289268D01*
X17165943Y-10207261D01*
X17165744Y-10141895D01*
X17164559Y-10079173D01*
X17161729Y-10036334D01*
X17156609Y-10008220D01*
X17148553Y-9989675D01*
X17136914Y-9975543D01*
X17108303Y-9955600D01*
X17060239Y-9948083D01*
X17012688Y-9967079D01*
X17009550Y-9969511D01*
X16999769Y-9980748D01*
X16992553Y-9998770D01*
X16987299Y-10028026D01*
X16983402Y-10072962D01*
X16980256Y-10138028D01*
X16977257Y-10227670D01*
X16970000Y-10467697D01*
X16908314Y-10440044D01*
X16846629Y-10412391D01*
X16846629Y-10193246D01*
X16846884Y-10133711D01*
X16849086Y-10050892D01*
X16854661Y-9989227D01*
X16864941Y-9943748D01*
X16881258Y-9909484D01*
X16904943Y-9881466D01*
X16937328Y-9854723D01*
X16983907Y-9827780D01*
X17057287Y-9810191D01*
X17131020Y-9817822D01*
G36*
X12840307Y-10191305D02*
G01*
X12836762Y-10267521D01*
X12827483Y-10323294D01*
X12810375Y-10364613D01*
X12783344Y-10397467D01*
X12744292Y-10427846D01*
X12719445Y-10441660D01*
X12679615Y-10450965D01*
X12623665Y-10450230D01*
X12592385Y-10447283D01*
X12554653Y-10438283D01*
X12524494Y-10418720D01*
X12489408Y-10382267D01*
X12484720Y-10376943D01*
X12453177Y-10335969D01*
X12438128Y-10300283D01*
X12434286Y-10257966D01*
X12434286Y-10195779D01*
X12477742Y-10212182D01*
X12509424Y-10231356D01*
X12536962Y-10276347D01*
X12542711Y-10290752D01*
X12574855Y-10331546D01*
X12618611Y-10352081D01*
X12666254Y-10350235D01*
X12710057Y-10323886D01*
X12725111Y-10307455D01*
X12738763Y-10282667D01*
X12734493Y-10260144D01*
X12709916Y-10236964D01*
X12662651Y-10210202D01*
X12590314Y-10176934D01*
X12441543Y-10111816D01*
X12437595Y-10047308D01*
X12439079Y-10006220D01*
X12536010Y-10006220D01*
X12543368Y-10031657D01*
X12576848Y-10058814D01*
X12637614Y-10089714D01*
X12647669Y-10094190D01*
X12695751Y-10115017D01*
X12731726Y-10129665D01*
X12748444Y-10135200D01*
X12750977Y-10131126D01*
X12751993Y-10106247D01*
X12748369Y-10066257D01*
X12739242Y-10027152D01*
X12710773Y-9977884D01*
X12669678Y-9950122D01*
X12620590Y-9946364D01*
X12568144Y-9969109D01*
X12553609Y-9980481D01*
X12536010Y-10006220D01*
X12439079Y-10006220D01*
X12439338Y-9999064D01*
X12461281Y-9938096D01*
X12488979Y-9904497D01*
X12546405Y-9866966D01*
X12614527Y-9848006D01*
X12684947Y-9849507D01*
X12749267Y-9873355D01*
X12763426Y-9882513D01*
X12795904Y-9910849D01*
X12818116Y-9946695D01*
X12831804Y-9995384D01*
X12838715Y-10062249D01*
X12839628Y-10106247D01*
X12840590Y-10152622D01*
X12840307Y-10191305D01*
G37*
X12840307Y-10191305D02*
X12836762Y-10267521D01*
X12827483Y-10323294D01*
X12810375Y-10364613D01*
X12783344Y-10397467D01*
X12744292Y-10427846D01*
X12719445Y-10441660D01*
X12679615Y-10450965D01*
X12623665Y-10450230D01*
X12592385Y-10447283D01*
X12554653Y-10438283D01*
X12524494Y-10418720D01*
X12489408Y-10382267D01*
X12484720Y-10376943D01*
X12453177Y-10335969D01*
X12438128Y-10300283D01*
X12434286Y-10257966D01*
X12434286Y-10195779D01*
X12477742Y-10212182D01*
X12509424Y-10231356D01*
X12536962Y-10276347D01*
X12542711Y-10290752D01*
X12574855Y-10331546D01*
X12618611Y-10352081D01*
X12666254Y-10350235D01*
X12710057Y-10323886D01*
X12725111Y-10307455D01*
X12738763Y-10282667D01*
X12734493Y-10260144D01*
X12709916Y-10236964D01*
X12662651Y-10210202D01*
X12590314Y-10176934D01*
X12441543Y-10111816D01*
X12437595Y-10047308D01*
X12439079Y-10006220D01*
X12536010Y-10006220D01*
X12543368Y-10031657D01*
X12576848Y-10058814D01*
X12637614Y-10089714D01*
X12647669Y-10094190D01*
X12695751Y-10115017D01*
X12731726Y-10129665D01*
X12748444Y-10135200D01*
X12750977Y-10131126D01*
X12751993Y-10106247D01*
X12748369Y-10066257D01*
X12739242Y-10027152D01*
X12710773Y-9977884D01*
X12669678Y-9950122D01*
X12620590Y-9946364D01*
X12568144Y-9969109D01*
X12553609Y-9980481D01*
X12536010Y-10006220D01*
X12439079Y-10006220D01*
X12439338Y-9999064D01*
X12461281Y-9938096D01*
X12488979Y-9904497D01*
X12546405Y-9866966D01*
X12614527Y-9848006D01*
X12684947Y-9849507D01*
X12749267Y-9873355D01*
X12763426Y-9882513D01*
X12795904Y-9910849D01*
X12818116Y-9946695D01*
X12831804Y-9995384D01*
X12838715Y-10062249D01*
X12839628Y-10106247D01*
X12840590Y-10152622D01*
X12840307Y-10191305D01*
G36*
X14353941Y-9849282D02*
G01*
X14385774Y-9861758D01*
X14422743Y-9878602D01*
X14422743Y-10365196D01*
X14376812Y-10411127D01*
X14366320Y-10421427D01*
X14337255Y-10444320D01*
X14307943Y-10451735D01*
X14264326Y-10448321D01*
X14246568Y-10446114D01*
X14200767Y-10441445D01*
X14168743Y-10439585D01*
X14159244Y-10439869D01*
X14120274Y-10442948D01*
X14073160Y-10448321D01*
X14058085Y-10450168D01*
X14020110Y-10450893D01*
X13992325Y-10439429D01*
X13960674Y-10411127D01*
X13914743Y-10365196D01*
X13914743Y-10105055D01*
X13915101Y-10028180D01*
X13916216Y-9954886D01*
X13917952Y-9896850D01*
X13920167Y-9858663D01*
X13922721Y-9844914D01*
X13923256Y-9844951D01*
X13941808Y-9851793D01*
X13973153Y-9866868D01*
X14015608Y-9888822D01*
X14019604Y-10117240D01*
X14023600Y-10345657D01*
X14110686Y-10345657D01*
X14114657Y-10095286D01*
X14115916Y-10027227D01*
X14117718Y-9954482D01*
X14119671Y-9896730D01*
X14121612Y-9858648D01*
X14123377Y-9844914D01*
X14123885Y-9844962D01*
X14141482Y-9850015D01*
X14173834Y-9860849D01*
X14219543Y-9876783D01*
X14219765Y-10096706D01*
X14219988Y-10134909D01*
X14221531Y-10209146D01*
X14224292Y-10271145D01*
X14227977Y-10315308D01*
X14232292Y-10336041D01*
X14247732Y-10347131D01*
X14279241Y-10350556D01*
X14313886Y-10345657D01*
X14317857Y-10095286D01*
X14319278Y-10031663D01*
X14322225Y-9956356D01*
X14326079Y-9897286D01*
X14330542Y-9858718D01*
X14335317Y-9844914D01*
X14353941Y-9849282D01*
G37*
X14353941Y-9849282D02*
X14385774Y-9861758D01*
X14422743Y-9878602D01*
X14422743Y-10365196D01*
X14376812Y-10411127D01*
X14366320Y-10421427D01*
X14337255Y-10444320D01*
X14307943Y-10451735D01*
X14264326Y-10448321D01*
X14246568Y-10446114D01*
X14200767Y-10441445D01*
X14168743Y-10439585D01*
X14159244Y-10439869D01*
X14120274Y-10442948D01*
X14073160Y-10448321D01*
X14058085Y-10450168D01*
X14020110Y-10450893D01*
X13992325Y-10439429D01*
X13960674Y-10411127D01*
X13914743Y-10365196D01*
X13914743Y-10105055D01*
X13915101Y-10028180D01*
X13916216Y-9954886D01*
X13917952Y-9896850D01*
X13920167Y-9858663D01*
X13922721Y-9844914D01*
X13923256Y-9844951D01*
X13941808Y-9851793D01*
X13973153Y-9866868D01*
X14015608Y-9888822D01*
X14019604Y-10117240D01*
X14023600Y-10345657D01*
X14110686Y-10345657D01*
X14114657Y-10095286D01*
X14115916Y-10027227D01*
X14117718Y-9954482D01*
X14119671Y-9896730D01*
X14121612Y-9858648D01*
X14123377Y-9844914D01*
X14123885Y-9844962D01*
X14141482Y-9850015D01*
X14173834Y-9860849D01*
X14219543Y-9876783D01*
X14219765Y-10096706D01*
X14219988Y-10134909D01*
X14221531Y-10209146D01*
X14224292Y-10271145D01*
X14227977Y-10315308D01*
X14232292Y-10336041D01*
X14247732Y-10347131D01*
X14279241Y-10350556D01*
X14313886Y-10345657D01*
X14317857Y-10095286D01*
X14319278Y-10031663D01*
X14322225Y-9956356D01*
X14326079Y-9897286D01*
X14330542Y-9858718D01*
X14335317Y-9844914D01*
X14353941Y-9849282D01*
G36*
X13667495Y-9846220D02*
G01*
X13698599Y-9854121D01*
X13727559Y-9873817D01*
X13764831Y-9910484D01*
X13788801Y-9936378D01*
X13813770Y-9969997D01*
X13825031Y-10001506D01*
X13827657Y-10041485D01*
X13827657Y-10106917D01*
X13783035Y-10083842D01*
X13747673Y-10055724D01*
X13723451Y-10017848D01*
X13719291Y-10007551D01*
X13687594Y-9967637D01*
X13643554Y-9947624D01*
X13595531Y-9949572D01*
X13551886Y-9975543D01*
X13533420Y-9996635D01*
X13522663Y-10023619D01*
X13534178Y-10047634D01*
X13569981Y-10071791D01*
X13632090Y-10099199D01*
X13641515Y-10102985D01*
X13698058Y-10127759D01*
X13746580Y-10152189D01*
X13777451Y-10171486D01*
X13808371Y-10205953D01*
X13828927Y-10260957D01*
X13826744Y-10319983D01*
X13802424Y-10375845D01*
X13756568Y-10421355D01*
X13719438Y-10440727D01*
X13647711Y-10454292D01*
X13607852Y-10452462D01*
X13570953Y-10442568D01*
X13556797Y-10421806D01*
X13562091Y-10387613D01*
X13563631Y-10383092D01*
X13575842Y-10359116D01*
X13596174Y-10350042D01*
X13634908Y-10350649D01*
X13662257Y-10351474D01*
X13694257Y-10344392D01*
X13716182Y-10323219D01*
X13728670Y-10297152D01*
X13730062Y-10269845D01*
X13729998Y-10269685D01*
X13713807Y-10254930D01*
X13679155Y-10233457D01*
X13634321Y-10209458D01*
X13587582Y-10187125D01*
X13547217Y-10170652D01*
X13521504Y-10164229D01*
X13517679Y-10170518D01*
X13512864Y-10200115D01*
X13509566Y-10248447D01*
X13508343Y-10309372D01*
X13508058Y-10351542D01*
X13506718Y-10404653D01*
X13504528Y-10441025D01*
X13501769Y-10454514D01*
X13487344Y-10449981D01*
X13458226Y-10437670D01*
X13421257Y-10420826D01*
X13421257Y-10204721D01*
X13421493Y-10149327D01*
X13423729Y-10065207D01*
X13429423Y-10002800D01*
X13439903Y-9957358D01*
X13456497Y-9924133D01*
X13480531Y-9898378D01*
X13513333Y-9875344D01*
X13555124Y-9856335D01*
X13632287Y-9844914D01*
X13667495Y-9846220D01*
G37*
X13667495Y-9846220D02*
X13698599Y-9854121D01*
X13727559Y-9873817D01*
X13764831Y-9910484D01*
X13788801Y-9936378D01*
X13813770Y-9969997D01*
X13825031Y-10001506D01*
X13827657Y-10041485D01*
X13827657Y-10106917D01*
X13783035Y-10083842D01*
X13747673Y-10055724D01*
X13723451Y-10017848D01*
X13719291Y-10007551D01*
X13687594Y-9967637D01*
X13643554Y-9947624D01*
X13595531Y-9949572D01*
X13551886Y-9975543D01*
X13533420Y-9996635D01*
X13522663Y-10023619D01*
X13534178Y-10047634D01*
X13569981Y-10071791D01*
X13632090Y-10099199D01*
X13641515Y-10102985D01*
X13698058Y-10127759D01*
X13746580Y-10152189D01*
X13777451Y-10171486D01*
X13808371Y-10205953D01*
X13828927Y-10260957D01*
X13826744Y-10319983D01*
X13802424Y-10375845D01*
X13756568Y-10421355D01*
X13719438Y-10440727D01*
X13647711Y-10454292D01*
X13607852Y-10452462D01*
X13570953Y-10442568D01*
X13556797Y-10421806D01*
X13562091Y-10387613D01*
X13563631Y-10383092D01*
X13575842Y-10359116D01*
X13596174Y-10350042D01*
X13634908Y-10350649D01*
X13662257Y-10351474D01*
X13694257Y-10344392D01*
X13716182Y-10323219D01*
X13728670Y-10297152D01*
X13730062Y-10269845D01*
X13729998Y-10269685D01*
X13713807Y-10254930D01*
X13679155Y-10233457D01*
X13634321Y-10209458D01*
X13587582Y-10187125D01*
X13547217Y-10170652D01*
X13521504Y-10164229D01*
X13517679Y-10170518D01*
X13512864Y-10200115D01*
X13509566Y-10248447D01*
X13508343Y-10309372D01*
X13508058Y-10351542D01*
X13506718Y-10404653D01*
X13504528Y-10441025D01*
X13501769Y-10454514D01*
X13487344Y-10449981D01*
X13458226Y-10437670D01*
X13421257Y-10420826D01*
X13421257Y-10204721D01*
X13421493Y-10149327D01*
X13423729Y-10065207D01*
X13429423Y-10002800D01*
X13439903Y-9957358D01*
X13456497Y-9924133D01*
X13480531Y-9898378D01*
X13513333Y-9875344D01*
X13555124Y-9856335D01*
X13632287Y-9844914D01*
X13667495Y-9846220D01*
G04 #@! TD*
M02*
